<?xml version="1.0" encoding="UTF-8" standalone="no"?>
<!-- Created with Inkscape (http://www.inkscape.org/) -->

<svg
   xmlns:dc="http://purl.org/dc/elements/1.1/"
   xmlns:cc="http://creativecommons.org/ns#"
   xmlns:rdf="http://www.w3.org/1999/02/22-rdf-syntax-ns#"
   xmlns:svg="http://www.w3.org/2000/svg"
   xmlns="http://www.w3.org/2000/svg"
   xmlns:sodipodi="http://sodipodi.sourceforge.net/DTD/sodipodi-0.dtd"
   xmlns:inkscape="http://www.inkscape.org/namespaces/inkscape"
   width="744.09448819"
   height="1052.3622047"
   id="svg2"
   version="1.1"
   inkscape:version="0.48.2 r9819"
   sodipodi:docname="desurium001.svg">
  <defs
     id="defs4" />
  <sodipodi:namedview
     id="base"
     pagecolor="#ffffff"
     bordercolor="#666666"
     borderopacity="1.0"
     inkscape:pageopacity="0.0"
     inkscape:pageshadow="2"
     inkscape:zoom="0.72753431"
     inkscape:cx="188.60877"
     inkscape:cy="-1938.2152"
     inkscape:document-units="px"
     inkscape:current-layer="layer1"
     showgrid="false"
     inkscape:window-width="1024"
     inkscape:window-height="708"
     inkscape:window-x="0"
     inkscape:window-y="0"
     inkscape:window-maximized="1" />
  <metadata
     id="metadata7">
    <rdf:RDF>
      <cc:Work
         rdf:about="">
        <dc:format>image/svg+xml</dc:format>
        <dc:type
           rdf:resource="http://purl.org/dc/dcmitype/StillImage" />
        <dc:title></dc:title>
      </cc:Work>
    </rdf:RDF>
  </metadata>
  <g
     inkscape:label="Layer 1"
     inkscape:groupmode="layer"
     id="layer1">
    <rect
       style="fill:#1a1a1a;fill-opacity:1;stroke:none"
       id="rect4401"
       width="450"
       height="450"
       x="-207.58159"
       y="2805.269"
       inkscape:export-filename="/home/shi/Desktop/t/desubot.png"
       inkscape:export-xdpi="90"
       inkscape:export-ydpi="90" />
    <rect
       style="fill:#1a1a1a;fill-opacity:1;stroke:none"
       id="rect4177"
       width="1800"
       height="760"
       x="-496"
       y="1832.3622"
       rx="18.043947"
       ry="13.848274"
       inkscape:export-filename="/home/shi/Desktop/t/desu.png"
       inkscape:export-xdpi="90"
       inkscape:export-ydpi="90" />
    <path
       style="fill:#333333;fill-opacity:1;stroke:none"
       d="m 554.49918,467.63763 c -6.45557,0 -11.65625,5.2007 -11.65625,11.6563 l 0,1.3125 c -3.83281,1.0749 -7.47695,2.6204 -10.875,4.5312 l -0.9375,-0.9374 c -4.56478,-4.5649 -11.93522,-4.5649 -16.5,0 l -2.5,2.5 c -4.56478,4.5646 -4.56478,11.9351 0,16.5 l 0.9375,0.9374 c -1.91099,3.3982 -3.45632,7.0423 -4.53125,10.875 l -1.3125,0 c -6.45557,0 -11.65625,5.2007 -11.65625,11.6563 l 0,3.5625 c 0,6.4556 5.20068,11.6562 11.65625,11.6562 l 1.3125,0 c 1.07493,3.833 2.62026,7.4771 4.53125,10.875 l -0.9375,0.9376 c -4.56478,4.5646 -4.56478,11.9351 0,16.5 l 2.5,2.5 c 4.56478,4.5646 11.93522,4.5646 16.5,0 l 0.9375,-0.9376 c 3.39805,1.9111 7.04219,3.4564 10.875,4.5313 l 0,1.3125 c 0,6.4556 5.20068,11.6562 11.65625,11.6562 l 3.5625,0 c 6.45557,0 11.65625,-5.2006 11.65625,-11.6562 l 0,-1.3125 c 3.83281,-1.0749 7.47695,-2.6202 10.875,-4.5313 l 0.9375,0.9376 c 4.56478,4.5646 11.93522,4.5646 16.5,0 l 2.5,-2.5 c 4.56478,-4.5649 4.56478,-11.9354 0,-16.5 l -0.9375,-0.9376 c 1.91099,-3.3979 3.45632,-7.042 4.53125,-10.875 l 1.3125,0 c 6.45557,0 11.65625,-5.2006 11.65625,-11.6562 l 0,-3.5625 c 0,-6.4556 -5.20068,-11.6563 -11.65625,-11.6563 l -1.3125,0 c -1.07493,-3.8327 -2.62026,-7.4768 -4.53125,-10.875 l 0.9375,-0.9374 c 4.56478,-4.5649 4.56478,-11.9354 0,-16.5 l -2.5,-2.5 c -4.56478,-4.5649 -11.93522,-4.5649 -16.5,0 l -0.9375,0.9374 c -3.39805,-1.9108 -7.04219,-3.4563 -10.875,-4.5312 l 0,-1.3125 c 0,-6.4556 -5.20068,-11.6563 -11.65625,-11.6563 l -3.5625,0 z m 1.78125,28.4376 c 17.87929,0 32.375,14.4957 32.375,32.375 0,17.8792 -14.49571,32.375 -32.375,32.375 -17.87929,0 -32.375,-14.4958 -32.375,-32.375 0,-17.8793 14.49571,-32.375 32.375,-32.375 z"
       id="rect3124"
       inkscape:connector-curvature="0" />
    <rect
       transform="matrix(0,1,-1,0,0,0)"
       style="fill:#333333;fill-rule:evenodd;stroke:none"
       id="rect3062"
       width="131.99321"
       height="61.222374"
       x="722.76636"
       y="-219.68832"
       rx="30.611187"
       ry="30.611187" />
    <path
       sodipodi:type="arc"
       style="fill:#000000;stroke:none"
       id="path2993"
       sodipodi:cx="306.18295"
       sodipodi:cy="419.66879"
       sodipodi:rx="36.84359"
       sodipodi:ry="36.84359"
       d="m 343.02654,419.66879 a 36.84359,36.84359 0 1 1 -73.68718,0 36.84359,36.84359 0 1 1 73.68718,0 z"
       transform="matrix(3.8448277,0,0,2.2758621,-980.88759,-751.8512)" />
    <rect
       style="fill:#333333;fill-rule:evenodd;stroke:none"
       id="rect2985"
       width="298.56015"
       height="138.48108"
       x="48.958725"
       y="150.53265"
       rx="69.24054"
       ry="69.24054" />
    <path
       sodipodi:type="arc"
       style="fill:#000000;stroke:none"
       id="path2987"
       sodipodi:cx="306.18295"
       sodipodi:cy="419.66879"
       sodipodi:rx="36.84359"
       sodipodi:ry="36.84359"
       d="m 343.02654,419.66879 a 36.84359,36.84359 0 1 1 -73.68718,0 36.84359,36.84359 0 1 1 73.68718,0 z"
       transform="matrix(1.0862069,0,0,1.0862069,-212.47306,-234.80347)" />
    <path
       transform="matrix(1.0862069,0,0,1.0862069,-49.853073,-234.80347)"
       d="m 343.02654,419.66879 a 36.84359,36.84359 0 1 1 -73.68718,0 36.84359,36.84359 0 1 1 73.68718,0 z"
       sodipodi:ry="36.84359"
       sodipodi:rx="36.84359"
       sodipodi:cy="419.66879"
       sodipodi:cx="306.18295"
       id="path2991"
       style="fill:#000000;stroke:none"
       sodipodi:type="arc" />
    <rect
       ry="30.611187"
       rx="30.611187"
       y="-230.6467"
       x="244.77435"
       height="61.222374"
       width="131.99321"
       id="rect2995"
       style="fill:#333333;fill-rule:evenodd;stroke:none"
       transform="matrix(0,1,-1,0,0,0)" />
    <rect
       ry="23.782604"
       rx="23.782604"
       y="325.71231"
       x="85.791367"
       height="91.481079"
       width="230.28502"
       id="rect2997"
       style="fill:#333333;fill-rule:evenodd;stroke:none" />
    <path
       style="fill:#333333;fill-rule:evenodd;stroke:none"
       d="m 889.2904,854.0661 c -38.35926,0 -69.25,30.85949 -69.25,69.21875 0,38.35926 30.89074,69.25005 69.25,69.25005 l 160.0625,0 c 30.6322,0 56.4794,-19.68832 65.6562,-47.1563 l -155.93745,0 c -6.35922,0 -11.46875,-5.10953 -11.46875,-11.46875 l 0,-21.21875 c 0,-6.35922 5.10953,-11.46875 11.46875,-11.46875 l 155.93745,0 c -9.1768,-27.46798 -35.024,-47.15625 -65.6562,-47.15625 l -160.0625,0 z"
       id="rect3001"
       inkscape:connector-curvature="0" />
    <path
       style="fill:#666666;fill-rule:evenodd;stroke:none"
       d="m 816.27719,754.43728 c 0,72.47021 82.31682,72.35662 82.31682,72.35662 l 120.87069,0 c 15.4655,0 27.9062,-12.47197 27.9062,-27.9375 0,-15.46553 -12.4407,-27.90625 -27.9062,-27.90625 l -89.87501,0 0,-29.6875 89.87501,0 c 15.4655,0 27.9062,-12.44072 27.9062,-27.90625 0,-15.46553 -12.4407,-27.9375 -27.9062,-27.9375 l -120.93751,0 c 0,0 -82.25,-0.0142 -82.25,69.01838 z"
       id="rect3003"
       inkscape:connector-curvature="0"
       sodipodi:nodetypes="scsssccssscs" />
    <rect
       style="fill:#666666;fill-rule:evenodd;stroke:none"
       id="rect3012"
       width="230.28502"
       height="55.832233"
       x="875.53027"
       y="280.15344"
       rx="27.916117"
       ry="27.916117" />
    <rect
       ry="27.916117"
       rx="27.916117"
       y="365.66888"
       x="875.53027"
       height="55.832233"
       width="230.28502"
       id="rect3014"
       style="fill:#666666;fill-rule:evenodd;stroke:none" />
    <rect
       transform="matrix(0,-1,1,0,0,0)"
       style="fill:#666666;fill-rule:evenodd;stroke:none"
       id="rect3016"
       width="141.34767"
       height="113.32708"
       x="-421.5011"
       y="874.71765"
       rx="31.060366"
       ry="31.060366" />
    <path
       style="fill:#333333;fill-opacity:1;fill-rule:evenodd;stroke:none"
       d="m 123.62125,428.41635 c 0,0 -48.506413,-5.9e-4 -48.506413,40.71074 0,42.73884 48.543273,42.66426 48.543273,42.66426 l 31.18269,0 c 20.57819,0 30.3782,-7.00721 30.59295,-15.86779 0.002,-0.06 -0.002,-0.12413 0,-0.18429 0.004,-0.13864 0.0184,-0.28439 0.0184,-0.42388 0,-0.14251 -0.0149,-0.28226 -0.0184,-0.42388 l 0,-16.01522 -16.01522,0 c -0.14162,-0.004 -0.28137,-0.0184 -0.42388,-0.0184 l -44.15705,0 0,-17.50802 44.15705,0 c 0.38003,0 0.75077,-0.0118 1.1242,-0.0369 l 15.3149,0 0,-15.99679 c 0.004,-0.13863 0.0184,-0.28439 0.0184,-0.42388 0,-0.14251 -0.0149,-0.28225 -0.0184,-0.42388 -0.002,-0.0676 0.002,-0.13533 0,-0.20272 -0.32801,-8.82763 -13.13151,-15.84934 -30.59295,-15.84936 z"
       id="path3019"
       inkscape:connector-curvature="0"
       sodipodi:nodetypes="cscsccscccsccscccsccsc" />
    <path
       sodipodi:nodetypes="cscsccscccsccscccsccsc"
       inkscape:connector-curvature="0"
       id="path3029"
       d="m 272.94574,428.41635 c 0,0 48.50641,-5.9e-4 48.50641,40.71074 0,42.73884 -48.54327,42.66426 -48.54327,42.66426 l -31.18269,0 c -20.57819,0 -30.3782,-7.00721 -30.59295,-15.86779 -0.002,-0.06 0.002,-0.12413 0,-0.18429 -0.004,-0.13864 -0.0184,-0.28439 -0.0184,-0.42388 0,-0.14251 0.0149,-0.28226 0.0184,-0.42388 l 0,-16.01522 16.01522,0 c 0.14162,-0.004 0.28137,-0.0184 0.42388,-0.0184 l 44.15705,0 0,-17.50802 -44.15705,0 c -0.38003,0 -0.75077,-0.0118 -1.1242,-0.0369 l -15.3149,0 0,-15.99679 c -0.004,-0.13863 -0.0184,-0.28439 -0.0184,-0.42388 0,-0.14251 0.0149,-0.28225 0.0184,-0.42388 0.002,-0.0676 -0.002,-0.13533 0,-0.20272 0.32801,-8.82763 13.13151,-15.84934 30.59295,-15.84936 z"
       style="fill:#333333;fill-opacity:1;fill-rule:evenodd;stroke:none" />
    <path
       style="fill:#333333;fill-opacity:1;stroke:none"
       d="m 126.70859,368.37228 c 0,0 -140.385263,59.30832 -24.69263,92.15416 l 0,28.84584 c 0,0 -93.1588232,-17.42172 -77.153693,-77.15368 16.00514,-59.73196 103.846323,-75.84632 103.846323,-75.84632 z"
       id="path3031"
       inkscape:connector-curvature="0" />
    <path
       inkscape:connector-curvature="0"
       id="path3052"
       d="m 271.01317,364.37228 c 0,0 140.38526,59.30832 24.69263,92.15416 l 0,28.84584 c 0,0 93.15882,-17.42172 77.15369,-77.15368 -16.00514,-59.73196 -103.84632,-75.84632 -103.84632,-75.84632 z"
       style="fill:#333333;fill-opacity:1;stroke:none" />
    <path
       transform="matrix(3.8448277,0,0,2.2758621,-991.84596,-273.85921)"
       d="m 343.02654,419.66879 a 36.84359,36.84359 0 1 1 -73.68718,0 36.84359,36.84359 0 1 1 73.68718,0 z"
       sodipodi:ry="36.84359"
       sodipodi:rx="36.84359"
       sodipodi:cy="419.66879"
       sodipodi:cx="306.18295"
       id="path3054"
       style="fill:#333333;fill-opacity:1;stroke:none"
       sodipodi:type="arc" />
    <rect
       ry="69.24054"
       rx="69.24054"
       y="628.52466"
       x="38.000359"
       height="138.48108"
       width="298.56015"
       id="rect3056"
       style="fill:#333333;fill-rule:evenodd;stroke:none" />
    <rect
       style="fill:#ffffff;fill-rule:evenodd;stroke:none"
       id="rect3074"
       width="264.06473"
       height="99.481079"
       x="55.24807"
       y="650.52466"
       ry="49.74054"
       rx="49.74054" />
    <path
       sodipodi:type="arc"
       style="fill:#333333;stroke:none"
       id="path3060"
       sodipodi:cx="306.18295"
       sodipodi:cy="419.66879"
       sodipodi:rx="36.84359"
       sodipodi:ry="36.84359"
       d="m 343.02654,419.66879 a 36.84359,36.84359 0 1 1 -73.68718,0 36.84359,36.84359 0 1 1 73.68718,0 z"
       transform="matrix(0.96406896,0,0,0.96406896,-27.914889,291.946)" />
    <rect
       style="fill:#333333;fill-rule:evenodd;stroke:none"
       id="rect3064"
       width="230.28502"
       height="91.481079"
       x="74.833"
       y="781.70428"
       rx="23.782604"
       ry="23.782604" />
    <path
       sodipodi:nodetypes="cscsccscccsccscccsccsc"
       inkscape:connector-curvature="0"
       id="path3066"
       d="m 112.66288,884.40834 c 0,0 -48.50641,-5.9e-4 -48.50641,40.71074 0,42.73884 48.54327,42.66426 48.54327,42.66426 l 31.18269,0 c 20.57819,0 30.3782,-7.00721 30.59295,-15.86779 0.002,-0.06 -0.002,-0.12413 0,-0.18429 0.004,-0.13864 0.0184,-0.28439 0.0184,-0.42388 0,-0.14251 -0.0149,-0.28226 -0.0184,-0.42388 l 0,-16.01522 -16.01522,0 c -0.14162,-0.004 -0.28137,-0.0184 -0.42388,-0.0184 l -44.15705,0 0,-17.50802 44.15705,0 c 0.38003,0 0.75077,-0.0118 1.1242,-0.0369 l 15.3149,0 0,-15.99679 c 0.004,-0.13863 0.0184,-0.28439 0.0184,-0.42388 0,-0.14251 -0.0149,-0.28225 -0.0184,-0.42388 -0.002,-0.0676 0.002,-0.13533 0,-0.20272 -0.32801,-8.82763 -13.13151,-15.84934 -30.59295,-15.84936 z"
       style="fill:#333333;fill-opacity:1;fill-rule:evenodd;stroke:none" />
    <path
       style="fill:#333333;fill-opacity:1;fill-rule:evenodd;stroke:none"
       d="m 261.98737,884.40834 c 0,0 48.50641,-5.9e-4 48.50641,40.71074 0,42.73884 -48.54327,42.66426 -48.54327,42.66426 l -31.18269,0 c -20.57819,0 -30.3782,-7.00721 -30.59295,-15.86779 -0.002,-0.06 0.002,-0.12413 0,-0.18429 -0.004,-0.13864 -0.0184,-0.28439 -0.0184,-0.42388 0,-0.14251 0.0149,-0.28226 0.0184,-0.42388 l 0,-16.01522 16.01522,0 c 0.14162,-0.004 0.28137,-0.0184 0.42388,-0.0184 l 44.15705,0 0,-17.50802 -44.15705,0 c -0.38003,0 -0.75077,-0.0118 -1.1242,-0.0369 l -15.3149,0 0,-15.99679 c -0.004,-0.13863 -0.0184,-0.28439 -0.0184,-0.42388 0,-0.14251 0.0149,-0.28225 0.0184,-0.42388 0.002,-0.0676 -0.002,-0.13533 0,-0.20272 0.32801,-8.82763 13.13151,-15.84934 30.59295,-15.84936 z"
       id="path3068"
       inkscape:connector-curvature="0"
       sodipodi:nodetypes="cscsccscccsccscccsccsc" />
    <path
       inkscape:connector-curvature="0"
       id="path3070"
       d="m 115.75022,824.36427 c 0,0 -140.385263,59.30832 -24.69263,92.15416 l 0,28.84584 c 0,0 -93.1588228,-17.42172 -77.153693,-77.15368 16.00514,-59.73196 103.846323,-75.84632 103.846323,-75.84632 z"
       style="fill:#333333;fill-opacity:1;stroke:none" />
    <path
       style="fill:#333333;fill-opacity:1;stroke:none"
       d="m 260.0548,820.36427 c 0,0 140.38526,59.30832 24.69263,92.15416 l 0,28.84584 c 0,0 93.15882,-17.42172 77.15369,-77.15368 C 345.89598,804.47863 258.0548,788.36427 258.0548,788.36427 z"
       id="path3072"
       inkscape:connector-curvature="0" />
    <path
       transform="matrix(0.96406896,0,0,0.96406896,-187.91489,291.946)"
       d="m 343.02654,419.66879 a 36.84359,36.84359 0 1 1 -73.68718,0 36.84359,36.84359 0 1 1 73.68718,0 z"
       sodipodi:ry="36.84359"
       sodipodi:rx="36.84359"
       sodipodi:cy="419.66879"
       sodipodi:cx="306.18295"
       id="path3076"
       style="fill:#333333;stroke:none"
       sodipodi:type="arc" />
    <text
       xml:space="preserve"
       style="font-size:40px;font-style:normal;font-weight:normal;line-height:125%;letter-spacing:0px;word-spacing:0px;fill:#ffffff;fill-opacity:1;stroke:none;font-family:Sans"
       x="92.045822"
       y="842.00537"
       id="text3078"
       sodipodi:linespacing="125%"><tspan
         sodipodi:role="line"
         id="tspan3080"
         x="92.045822"
         y="842.00537"
         style="font-size:40px;font-style:normal;font-variant:normal;font-weight:bold;font-stretch:normal;text-align:start;line-height:125%;writing-mode:lr-tb;text-anchor:start;fill:#ffffff;font-family:Sawasdee;-inkscape-font-specification:Sawasdee Bold">DESURIUM</tspan></text>
    <rect
       ry="30.611187"
       rx="30.611187"
       y="-588.68829"
       x="722.76636"
       height="61.222374"
       width="131.99321"
       id="rect3086"
       style="fill:#333333;fill-rule:evenodd;stroke:none"
       transform="matrix(0,1,-1,0,0,0)" />
    <path
       sodipodi:type="arc"
       style="fill:#333333;fill-opacity:1;stroke:none"
       id="path3088"
       sodipodi:cx="306.18295"
       sodipodi:cy="419.66879"
       sodipodi:rx="36.84359"
       sodipodi:ry="36.84359"
       d="m 343.02654,419.66879 a 36.84359,36.84359 0 1 1 -73.68718,0 36.84359,36.84359 0 1 1 73.68718,0 z"
       transform="matrix(3.8448277,0,0,2.2758621,-622.84596,-273.85921)" />
    <rect
       style="fill:#333333;fill-rule:evenodd;stroke:none"
       id="rect3090"
       width="298.56015"
       height="138.48108"
       x="407.00037"
       y="628.52466"
       rx="69.24054"
       ry="69.24054" />
    <rect
       rx="47.74054"
       ry="47.74054"
       y="650.02466"
       x="429.55692"
       height="95.481079"
       width="253.44704"
       id="rect3092"
       style="fill:#ffffff;fill-rule:evenodd;stroke:none" />
    <rect
       ry="23.782604"
       rx="23.782604"
       y="781.70428"
       x="443.83301"
       height="91.481079"
       width="230.28502"
       id="rect3096"
       style="fill:#333333;fill-rule:evenodd;stroke:none" />
    <path
       style="fill:#333333;fill-opacity:1;fill-rule:evenodd;stroke:none"
       d="m 481.66288,884.40834 c 0,0 -48.50641,-5.9e-4 -48.50641,40.71074 0,42.73884 48.54327,42.66426 48.54327,42.66426 l 31.18269,0 c 20.57819,0 30.3782,-7.00721 30.59295,-15.86779 0.002,-0.06 -0.002,-0.12413 0,-0.18429 0.004,-0.13864 0.0184,-0.28439 0.0184,-0.42388 0,-0.14251 -0.0149,-0.28226 -0.0184,-0.42388 l 0,-16.01522 -16.01522,0 c -0.14162,-0.004 -0.28137,-0.0184 -0.42388,-0.0184 l -44.15705,0 0,-17.50802 44.15705,0 c 0.38003,0 0.75077,-0.0118 1.1242,-0.0369 l 15.3149,0 0,-15.99679 c 0.004,-0.13863 0.0184,-0.28439 0.0184,-0.42388 0,-0.14251 -0.0149,-0.28225 -0.0184,-0.42388 -0.002,-0.0676 0.002,-0.13533 0,-0.20272 -0.32801,-8.82763 -13.13151,-15.84934 -30.59295,-15.84936 z"
       id="path3098"
       inkscape:connector-curvature="0"
       sodipodi:nodetypes="cscsccscccsccscccsccsc" />
    <path
       sodipodi:nodetypes="cscsccscccsccscccsccsc"
       inkscape:connector-curvature="0"
       id="path3100"
       d="m 630.98737,884.40834 c 0,0 48.50641,-5.9e-4 48.50641,40.71074 0,42.73884 -48.54327,42.66426 -48.54327,42.66426 l -31.18269,0 c -20.57819,0 -30.3782,-7.00721 -30.59295,-15.86779 -0.002,-0.06 0.002,-0.12413 0,-0.18429 -0.004,-0.13864 -0.0184,-0.28439 -0.0184,-0.42388 0,-0.14251 0.0149,-0.28226 0.0184,-0.42388 l 0,-16.01522 16.01522,0 c 0.14162,-0.004 0.28137,-0.0184 0.42388,-0.0184 l 44.15705,0 0,-17.50802 -44.15705,0 c -0.38003,0 -0.75077,-0.0118 -1.1242,-0.0369 l -15.3149,0 0,-15.99679 c -0.004,-0.13863 -0.0184,-0.28439 -0.0184,-0.42388 0,-0.14251 0.0149,-0.28225 0.0184,-0.42388 0.002,-0.0676 -0.002,-0.13533 0,-0.20272 0.32801,-8.82763 13.13151,-15.84934 30.59295,-15.84936 z"
       style="fill:#333333;fill-opacity:1;fill-rule:evenodd;stroke:none" />
    <path
       style="fill:#333333;fill-opacity:1;stroke:none"
       d="m 484.75022,824.36427 c 0,0 -140.38526,59.30832 -24.69263,92.15416 l 0,28.84584 c 0,0 -93.15882,-17.42172 -77.15369,-77.15368 16.00514,-59.73196 103.84632,-75.84632 103.84632,-75.84632 z"
       id="path3102"
       inkscape:connector-curvature="0" />
    <path
       inkscape:connector-curvature="0"
       id="path3104"
       d="m 629.0548,820.36427 c 0,0 140.38526,59.30832 24.69263,92.15416 l 0,28.84584 c 0,0 93.15882,-17.42172 77.15369,-77.15368 C 714.89598,804.47863 627.0548,788.36427 627.0548,788.36427 z"
       style="fill:#333333;fill-opacity:1;stroke:none" />
    <path
       sodipodi:type="arc"
       style="fill:#333333;stroke:none"
       id="path3106"
       sodipodi:cx="306.18295"
       sodipodi:cy="419.66879"
       sodipodi:rx="36.84359"
       sodipodi:ry="36.84359"
       d="m 343.02654,419.66879 a 36.84359,36.84359 0 1 1 -73.68718,0 36.84359,36.84359 0 1 1 73.68718,0 z"
       transform="matrix(0.86907279,0,0,0.86907279,211.67132,331.31293)" />
    <text
       sodipodi:linespacing="125%"
       id="text3082"
       y="842.22485"
       x="463.2374"
       style="font-size:40px;font-style:normal;font-variant:normal;font-weight:600;font-stretch:normal;text-align:start;line-height:125%;letter-spacing:0px;word-spacing:0px;writing-mode:lr-tb;text-anchor:start;fill:#ffffff;fill-opacity:1;stroke:none;font-family:URW Gothic L;-inkscape-font-specification:URW Gothic L Semi-Bold"
       xml:space="preserve"><tspan
         style="font-size:40px;font-style:normal;font-variant:normal;font-weight:600;font-stretch:normal;text-align:start;line-height:125%;writing-mode:lr-tb;text-anchor:start;fill:#ffffff;font-family:URW Gothic L;-inkscape-font-specification:URW Gothic L Semi-Bold"
         y="842.22485"
         x="463.2374"
         id="tspan3084"
         sodipodi:role="line">DESURIUM</tspan></text>
    <path
       transform="matrix(0.86907279,0,0,0.86907279,372.67132,331.31293)"
       d="m 343.02654,419.66879 a 36.84359,36.84359 0 1 1 -73.68718,0 36.84359,36.84359 0 1 1 73.68718,0 z"
       sodipodi:ry="36.84359"
       sodipodi:rx="36.84359"
       sodipodi:cy="419.66879"
       sodipodi:cx="306.18295"
       id="path3108"
       style="fill:#333333;stroke:none"
       sodipodi:type="arc" />
    <rect
       style="fill:#333333;fill-opacity:1;stroke:none"
       id="rect3110"
       width="36.769554"
       height="108.89445"
       x="537.89563"
       y="510.71838"
       rx="18.384777"
       ry="18.384777" />
    <path
       transform="matrix(1.3488759,0,0,1.3488759,559.03142,-3.6886493)"
       d="m 343.02654,419.66879 a 36.84359,36.84359 0 1 1 -73.68718,0 36.84359,36.84359 0 1 1 73.68718,0 z"
       sodipodi:ry="36.84359"
       sodipodi:rx="36.84359"
       sodipodi:cy="419.66879"
       sodipodi:cx="306.18295"
       id="path3112"
       style="fill:#333333;stroke:none"
       sodipodi:type="arc" />
    <rect
       ry="11.652653"
       rx="11.652653"
       y="501.58124"
       x="958.59918"
       height="121.62236"
       width="26.87006"
       id="rect3114"
       style="fill:#333333;fill-opacity:1;stroke:none" />
    <rect
       style="fill:#333333;fill-opacity:1;stroke:none"
       id="rect3116"
       width="26.87006"
       height="121.62236"
       x="548.95734"
       y="-1032.8455"
       rx="11.652653"
       ry="11.652653"
       transform="matrix(0,1,-1,0,0,0)" />
    <rect
       style="fill:#333333;fill-opacity:1;stroke:none"
       id="rect3118"
       width="26.87006"
       height="121.62236"
       x="1071.5685"
       y="-350.47168"
       rx="11.652653"
       ry="11.652653"
       transform="matrix(0.70710678,0.70710678,-0.70710678,0.70710678,0,0)" />
    <rect
       transform="matrix(-0.70710678,0.70710678,-0.70710678,-0.70710678,0,0)"
       ry="11.652653"
       rx="11.652653"
       y="-1145.8147"
       x="-303.09558"
       height="121.62236"
       width="26.87006"
       id="rect3120"
       style="fill:#333333;fill-opacity:1;stroke:none" />
    <path
       style="fill:#333333;fill-rule:evenodd;stroke:none"
       d="M 194.375 1345.4062 C 126.03077 1345.4062 68.986477 1374.04 55.65625 1412.1562 C 50.146705 1422.1007 47 1433.5322 47 1445.75 C 47 1484.1093 77.890741 1515 116.25 1515 L 167.46875 1515 L 167.46875 1529.7188 L 107.625 1529.7188 C 94.449437 1529.7188 83.84375 1540.3244 83.84375 1553.5 L 83.84375 1554.4688 C 59.082592 1565.7979 31.247469 1585.0888 22.90625 1616.2188 C 12.447522 1655.2511 48.591681 1676.2191 74.90625 1686.0625 C 83.56308 1715.8301 121.6875 1715.7812 121.6875 1715.7812 L 152.875 1715.7812 C 173.45319 1715.7812 183.254 1708.7669 183.46875 1699.9062 C 183.47075 1699.8464 183.46675 1699.7787 183.46875 1699.7188 C 183.47275 1699.58 183.5 1699.452 183.5 1699.3125 C 183.5 1699.17 183.47225 1699.0166 183.46875 1698.875 L 183.46875 1682.875 L 167.46875 1682.875 C 167.32713 1682.875 167.17376 1682.8438 167.03125 1682.8438 L 122.875 1682.8438 L 122.875 1665.3438 L 167.03125 1665.3438 C 167.41128 1665.3438 167.78282 1665.3375 168.15625 1665.3125 L 183.46875 1665.3125 L 183.46875 1649.3125 C 183.47275 1649.1738 183.5 1649.0145 183.5 1648.875 C 183.5 1648.7325 183.47225 1648.6102 183.46875 1648.4688 C 183.46675 1648.4007 183.47075 1648.3174 183.46875 1648.25 C 183.14074 1639.4224 170.33644 1632.4062 152.875 1632.4062 L 121.65625 1632.4062 C 121.65625 1632.4062 87.956293 1632.4255 76.75 1656.0312 C 36.379565 1636.7832 57.994316 1612.1731 83.84375 1594.625 L 83.84375 1597.4062 C 83.84375 1610.5819 94.449437 1621.1875 107.625 1621.1875 L 290.34375 1621.1875 C 303.51931 1621.1875 314.125 1610.5819 314.125 1597.4062 L 314.125 1593.5 C 338.51115 1611.1713 355.98405 1634.8324 314.4375 1653.2188 C 302.00762 1632.4054 271 1632.4062 271 1632.4062 L 239.78125 1632.4062 C 222.31981 1632.4062 209.51551 1639.4224 209.1875 1648.25 C 209.1855 1648.3174 209.1895 1648.4007 209.1875 1648.4688 C 209.184 1648.6102 209.15625 1648.7325 209.15625 1648.875 C 209.15625 1649.0145 209.1835 1649.1738 209.1875 1649.3125 L 209.1875 1665.3125 L 224.5 1665.3125 C 224.87343 1665.3375 225.24497 1665.3438 225.625 1665.3438 L 269.78125 1665.3438 L 269.78125 1682.8438 L 225.625 1682.8438 C 225.48249 1682.8438 225.32912 1682.875 225.1875 1682.875 L 209.1875 1682.875 L 209.1875 1698.875 C 209.184 1699.0166 209.15625 1699.17 209.15625 1699.3125 C 209.15625 1699.452 209.1835 1699.58 209.1875 1699.7188 C 209.1895 1699.7787 209.1855 1699.8464 209.1875 1699.9062 C 209.40225 1708.7669 219.20306 1715.7812 239.78125 1715.7812 L 270.9375 1715.7812 C 270.9375 1715.7812 312.39711 1715.8461 318.6875 1682.125 C 345.01907 1672.3145 381.39262 1651.3543 370.90625 1612.2188 C 363.02803 1582.8167 337.73883 1563.9832 314.09375 1552.4375 C 313.55068 1539.7503 303.1693 1529.7188 290.34375 1529.7188 L 228.6875 1529.7188 L 228.6875 1515 L 276.3125 1515 C 314.67176 1515 345.5625 1484.1093 345.5625 1445.75 C 345.5625 1426.0314 337.3916 1408.3061 324.25 1395.7188 C 302.39044 1366.1044 252.46311 1345.4062 194.375 1345.4062 z M 117.3125 1398.0312 L 275.25 1398.0312 C 301.69826 1398.0312 323 1419.3017 323 1445.75 C 323 1472.1983 301.69826 1493.5 275.25 1493.5 L 117.3125 1493.5 C 90.864241 1493.5 69.5625 1472.1983 69.5625 1445.75 C 69.5625 1419.3017 90.864241 1398.0312 117.3125 1398.0312 z "
       id="rect3138" />
    <path
       transform="matrix(0.86907279,0,0,0.86907279,-148.32868,1079.3129)"
       d="m 343.02654,419.66879 a 36.84359,36.84359 0 1 1 -73.68718,0 36.84359,36.84359 0 1 1 73.68718,0 z"
       sodipodi:ry="36.84359"
       sodipodi:rx="36.84359"
       sodipodi:cy="419.66879"
       sodipodi:cx="306.18295"
       id="path3156"
       style="fill:#333333;stroke:none"
       sodipodi:type="arc" />
    <text
       xml:space="preserve"
       style="font-size:40px;font-style:normal;font-variant:normal;font-weight:600;font-stretch:normal;text-align:start;line-height:125%;letter-spacing:0px;word-spacing:0px;writing-mode:lr-tb;text-anchor:start;fill:#ffffff;fill-opacity:1;stroke:none;font-family:URW Gothic L;-inkscape-font-specification:URW Gothic L Semi-Bold"
       x="103.2374"
       y="1590.2249"
       id="text3158"
       sodipodi:linespacing="125%"><tspan
         sodipodi:role="line"
         id="tspan3160"
         x="103.2374"
         y="1590.2249"
         style="font-size:40px;font-style:normal;font-variant:normal;font-weight:600;font-stretch:normal;text-align:start;line-height:125%;writing-mode:lr-tb;text-anchor:start;fill:#ffffff;font-family:URW Gothic L;-inkscape-font-specification:URW Gothic L Semi-Bold">DESURIUM</tspan></text>
    <path
       sodipodi:type="arc"
       style="fill:#333333;stroke:none"
       id="path3162"
       sodipodi:cx="306.18295"
       sodipodi:cy="419.66879"
       sodipodi:rx="36.84359"
       sodipodi:ry="36.84359"
       d="m 343.02654,419.66879 a 36.84359,36.84359 0 1 1 -73.68718,0 36.84359,36.84359 0 1 1 73.68718,0 z"
       transform="matrix(0.86907279,0,0,0.86907279,12.671322,1079.3129)" />
    <path
       style="fill:#333333;fill-opacity:1;stroke:none"
       d="m 196.28043,1272.7188 c -10.18517,0 -18.375,8.1898 -18.375,18.375 l 0,17.0937 36.75,0 0,-17.0937 c 0,-10.1852 -8.18983,-18.375 -18.375,-18.375 z m -18.375,46.7812 0,43.7188 c 0,10.1851 8.18983,18.4062 18.375,18.4062 10.18517,0 18.375,-8.2211 18.375,-18.4062 l 0,-43.7188 -36.75,0 z"
       id="rect3164"
       inkscape:connector-curvature="0" />
    <path
       style="fill:#333333;fill-opacity:1;stroke:none"
       d="m 641.39064,1215.6376 c -6.45557,0 -11.65625,5.2007 -11.65625,11.6563 l 0,1.3125 c -3.83281,1.0749 -7.47695,2.6204 -10.875,4.5312 l -0.9375,-0.9374 c -4.56478,-4.5649 -11.93522,-4.5649 -16.5,0 l -2.5,2.5 c -4.56478,4.5646 -4.56478,11.9351 0,16.5 l 0.9375,0.9374 c -1.91099,3.3982 -3.45632,7.0423 -4.53125,10.875 l -1.3125,0 c -6.45557,0 -11.65625,5.2007 -11.65625,11.6563 l 0,3.5625 c 0,6.4556 5.20068,11.6562 11.65625,11.6562 l 1.3125,0 c 1.07493,3.833 2.62026,7.4771 4.53125,10.875 l -0.9375,0.9376 c -4.56478,4.5646 -4.56478,11.9351 0,16.5 l 2.5,2.5 c 4.56478,4.5646 11.93522,4.5646 16.5,0 l 0.9375,-0.9376 c 3.39805,1.9111 7.04219,3.4564 10.875,4.5313 l 0,1.3125 c 0,6.4556 5.20068,11.6562 11.65625,11.6562 l 3.5625,0 c 6.45557,0 11.65625,-5.2006 11.65625,-11.6562 l 0,-1.3125 c 3.83281,-1.0749 7.47695,-2.6202 10.875,-4.5313 l 0.9375,0.9376 c 4.56478,4.5646 11.93522,4.5646 16.5,0 l 2.5,-2.5 c 4.56478,-4.5649 4.56478,-11.9354 0,-16.5 l -0.9375,-0.9376 c 1.91099,-3.3979 3.45632,-7.042 4.53125,-10.875 l 1.3125,0 c 6.45557,0 11.65625,-5.2006 11.65625,-11.6562 l 0,-3.5625 c 0,-6.4556 -5.20068,-11.6563 -11.65625,-11.6563 l -1.3125,0 c -1.07493,-3.8327 -2.62026,-7.4768 -4.53125,-10.875 l 0.9375,-0.9374 c 4.56478,-4.5649 4.56478,-11.9354 0,-16.5 l -2.5,-2.5 c -4.56478,-4.5649 -11.93522,-4.5649 -16.5,0 l -0.9375,0.9374 c -3.39805,-1.9108 -7.04219,-3.4563 -10.875,-4.5312 l 0,-1.3125 c 0,-6.4556 -5.20068,-11.6563 -11.65625,-11.6563 l -3.5625,0 z m 1.78125,28.4376 c 17.87929,0 32.375,14.4957 32.375,32.375 0,17.8792 -14.49571,32.375 -32.375,32.375 -17.87929,0 -32.375,-14.4958 -32.375,-32.375 0,-17.8793 14.49571,-32.375 32.375,-32.375 z"
       id="path3166"
       inkscape:connector-curvature="0" />
    <path
       style="fill:#333333;fill-rule:evenodd;stroke:none"
       d="M 641.28125 1345.4062 C 573.032 1345.4062 516.05795 1373.9629 502.625 1412 C 497.0605 1421.9812 493.90625 1433.4669 493.90625 1445.75 C 493.90625 1484.1093 524.76574 1515 563.125 1515 L 614.34375 1515 L 614.34375 1529.7188 L 554.5 1529.7188 C 541.32444 1529.7188 530.71875 1540.3244 530.71875 1553.5 L 530.71875 1554.5 C 505.96491 1565.8311 478.11918 1585.1011 469.78125 1616.2188 C 459.32712 1655.234 495.46961 1676.1825 521.78125 1686.0312 C 530.42179 1715.8279 568.59375 1715.7812 568.59375 1715.7812 L 599.78125 1715.7812 C 620.35944 1715.7812 630.16025 1708.7669 630.375 1699.9062 C 630.377 1699.8464 630.373 1699.7787 630.375 1699.7188 C 630.379 1699.58 630.375 1699.452 630.375 1699.3125 C 630.375 1699.17 630.3785 1699.0166 630.375 1698.875 L 630.375 1682.875 L 614.34375 1682.875 C 614.20213 1682.875 614.08001 1682.8438 613.9375 1682.8438 L 569.78125 1682.8438 L 569.78125 1665.3438 L 613.9375 1665.3438 C 614.31753 1665.3438 614.68907 1665.3375 615.0625 1665.3125 L 630.375 1665.3125 L 630.375 1649.3125 C 630.379 1649.1738 630.375 1649.0145 630.375 1648.875 C 630.375 1648.7325 630.3785 1648.6102 630.375 1648.4688 C 630.373 1648.4007 630.377 1648.3174 630.375 1648.25 C 630.04699 1639.4224 617.24269 1632.4062 599.78125 1632.4062 L 568.5625 1632.4062 C 568.5625 1632.4062 534.83129 1632.4255 523.625 1656.0312 C 483.29599 1636.788 504.88021 1612.1688 530.71875 1594.625 L 530.71875 1597.4062 C 530.71875 1610.5819 541.32444 1621.1875 554.5 1621.1875 L 737.21875 1621.1875 C 750.39431 1621.1875 761 1610.5819 761 1597.4062 L 761 1593.5 C 785.38934 1611.1733 802.87661 1634.8313 761.3125 1653.2188 C 748.88262 1632.4054 717.875 1632.4062 717.875 1632.4062 L 686.65625 1632.4062 C 669.19481 1632.4062 656.39051 1639.4224 656.0625 1648.25 C 656.0605 1648.3174 656.0645 1648.4007 656.0625 1648.4688 C 656.059 1648.6102 656.0625 1648.7325 656.0625 1648.875 C 656.0625 1649.0145 656.0585 1649.1738 656.0625 1649.3125 L 656.0625 1665.3125 L 671.375 1665.3125 C 671.74843 1665.3375 672.11997 1665.3438 672.5 1665.3438 L 716.65625 1665.3438 L 716.65625 1682.8438 L 672.5 1682.8438 C 672.35749 1682.8438 672.23537 1682.875 672.09375 1682.875 L 656.0625 1682.875 L 656.0625 1698.875 C 656.059 1699.0166 656.0625 1699.17 656.0625 1699.3125 C 656.0625 1699.452 656.0585 1699.58 656.0625 1699.7188 C 656.0645 1699.7787 656.0605 1699.8464 656.0625 1699.9062 C 656.27725 1708.7669 666.07806 1715.7812 686.65625 1715.7812 L 717.84375 1715.7812 C 717.84375 1715.7812 759.27151 1715.8452 765.5625 1682.125 C 791.89414 1672.3146 828.26775 1651.3547 817.78125 1612.2188 C 809.90094 1582.8089 784.61923 1563.9824 760.96875 1552.4375 C 760.42568 1539.7503 750.0443 1529.7188 737.21875 1529.7188 L 675.59375 1529.7188 L 675.59375 1515 L 723.21875 1515 C 761.57801 1515 792.4375 1484.1093 792.4375 1445.75 C 792.4375 1426.0109 784.25934 1408.2773 771.09375 1395.6875 C 749.22066 1366.092 699.34639 1345.4062 641.28125 1345.4062 z M 564.1875 1398.0312 L 722.15625 1398.0312 C 748.60451 1398.0312 769.90625 1419.3017 769.90625 1445.75 C 769.90625 1472.1983 748.60451 1493.5 722.15625 1493.5 L 564.1875 1493.5 C 537.73924 1493.5 516.4375 1472.1983 516.4375 1445.75 C 516.4375 1419.3017 537.73924 1398.0312 564.1875 1398.0312 z "
       id="rect3168" />
    <path
       sodipodi:type="arc"
       style="fill:#333333;stroke:none"
       id="path3186"
       sodipodi:cx="306.18295"
       sodipodi:cy="419.66879"
       sodipodi:rx="36.84359"
       sodipodi:ry="36.84359"
       d="m 343.02654,419.66879 a 36.84359,36.84359 0 1 1 -73.68718,0 36.84359,36.84359 0 1 1 73.68718,0 z"
       transform="matrix(0.86907279,0,0,0.86907279,298.56281,1079.3129)" />
    <text
       sodipodi:linespacing="125%"
       id="text3188"
       y="1590.2249"
       x="550.12885"
       style="font-size:40px;font-style:normal;font-variant:normal;font-weight:600;font-stretch:normal;text-align:start;line-height:125%;letter-spacing:0px;word-spacing:0px;writing-mode:lr-tb;text-anchor:start;fill:#ffffff;fill-opacity:1;stroke:none;font-family:URW Gothic L;-inkscape-font-specification:URW Gothic L Semi-Bold"
       xml:space="preserve"><tspan
         style="font-size:40px;font-style:normal;font-variant:normal;font-weight:600;font-stretch:normal;text-align:start;line-height:125%;writing-mode:lr-tb;text-anchor:start;fill:#ffffff;font-family:URW Gothic L;-inkscape-font-specification:URW Gothic L Semi-Bold"
         y="1590.2249"
         x="550.12885"
         id="tspan3190"
         sodipodi:role="line">DESURIUM</tspan></text>
    <path
       transform="matrix(0.86907279,0,0,0.86907279,459.56281,1079.3129)"
       d="m 343.02654,419.66879 a 36.84359,36.84359 0 1 1 -73.68718,0 36.84359,36.84359 0 1 1 73.68718,0 z"
       sodipodi:ry="36.84359"
       sodipodi:rx="36.84359"
       sodipodi:cy="419.66879"
       sodipodi:cx="306.18295"
       id="path3192"
       style="fill:#333333;stroke:none"
       sodipodi:type="arc" />
    <rect
       style="fill:#333333;fill-opacity:1;stroke:none"
       id="rect3194"
       width="36.769554"
       height="82.024391"
       x="624.78711"
       y="1308.7184"
       rx="18.384777"
       ry="13.848274" />
    <path
       inkscape:connector-curvature="0"
       id="path3199"
       d="m 1074.14,1215.6376 c -6.4556,0 -11.6563,5.2007 -11.6563,11.6563 l 0,1.3125 c -3.8328,1.0749 -7.4769,2.6204 -10.875,4.5312 l -0.9375,-0.9374 c -4.5647,-4.5649 -11.9352,-4.5649 -16.5,0 l -2.5,2.5 c -4.5647,4.5646 -4.5647,11.9351 0,16.5 l 0.9375,0.9374 c -1.911,3.3982 -3.4563,7.0423 -4.5312,10.875 l -1.3125,0 c -6.4556,0 -11.6563,5.2007 -11.6563,11.6563 l 0,3.5625 c 0,6.4556 5.2007,11.6562 11.6563,11.6562 l 1.3125,0 c 1.0749,3.833 2.6202,7.4771 4.5312,10.875 l -0.9375,0.9376 c -4.5647,4.5646 -4.5647,11.9351 0,16.5 l 2.5,2.5 c 4.5648,4.5646 11.9353,4.5646 16.5,0 l 0.9375,-0.9376 c 3.3981,1.9111 7.0422,3.4564 10.875,4.5313 l 0,1.3125 c 0,6.4556 5.2007,11.6562 11.6563,11.6562 l 3.5625,0 c 6.4556,0 11.6562,-5.2006 11.6562,-11.6562 l 0,-1.3125 c 3.8328,-1.0749 7.477,-2.6202 10.875,-4.5313 l 0.9375,0.9376 c 4.5648,4.5646 11.9353,4.5646 16.5,0 l 2.5,-2.5 c 4.5648,-4.5649 4.5648,-11.9354 0,-16.5 l -0.9375,-0.9376 c 1.911,-3.3979 3.4564,-7.042 4.5313,-10.875 l 1.3125,0 c 6.4556,0 11.6562,-5.2006 11.6562,-11.6562 l 0,-3.5625 c 0,-6.4556 -5.2006,-11.6563 -11.6562,-11.6563 l -1.3125,0 c -1.0749,-3.8327 -2.6203,-7.4768 -4.5313,-10.875 l 0.9375,-0.9374 c 4.5648,-4.5649 4.5648,-11.9354 0,-16.5 l -2.5,-2.5 c -4.5647,-4.5649 -11.9352,-4.5649 -16.5,0 l -0.9375,0.9374 c -3.398,-1.9108 -7.0422,-3.4563 -10.875,-4.5312 l 0,-1.3125 c 0,-6.4556 -5.2006,-11.6563 -11.6562,-11.6563 l -3.5625,0 z m 1.7812,28.4376 c 17.8793,0 32.375,14.4957 32.375,32.375 0,17.8792 -14.4957,32.375 -32.375,32.375 -17.8793,0 -32.375,-14.4958 -32.375,-32.375 0,-17.8793 14.4957,-32.375 32.375,-32.375 z"
       style="fill:#333333;fill-opacity:1;stroke:none" />
    <rect
       transform="matrix(0,1,-1,0,0,0)"
       style="fill:#333333;fill-rule:evenodd;stroke:none"
       id="rect3201"
       width="131.99321"
       height="61.222374"
       x="1470.7664"
       y="-1108.3291"
       rx="30.611187"
       ry="30.611187" />
    <path
       transform="matrix(3.8448277,0,0,2.2758621,-103.20512,474.14079)"
       d="m 343.02654,419.66879 a 36.84359,36.84359 0 1 1 -73.68718,0 36.84359,36.84359 0 1 1 73.68718,0 z"
       sodipodi:ry="36.84359"
       sodipodi:rx="36.84359"
       sodipodi:cy="419.66879"
       sodipodi:cx="306.18295"
       id="path3203"
       style="fill:#333333;fill-opacity:1;stroke:none"
       sodipodi:type="arc" />
    <rect
       ry="69.24054"
       rx="69.24054"
       y="1376.5247"
       x="926.64117"
       height="138.48108"
       width="298.56015"
       id="rect3205"
       style="fill:#333333;fill-rule:evenodd;stroke:none" />
    <rect
       style="fill:#ffffff;fill-rule:evenodd;stroke:none"
       id="rect3207"
       width="253.44704"
       height="95.481079"
       x="949.19769"
       y="1398.0247"
       ry="47.74054"
       rx="47.74054" />
    <rect
       style="fill:#333333;fill-rule:evenodd;stroke:none"
       id="rect3209"
       width="230.28502"
       height="91.481079"
       x="963.47382"
       y="1529.7042"
       rx="23.782604"
       ry="23.782604" />
    <path
       sodipodi:nodetypes="cscsccscccsccscccsccsc"
       inkscape:connector-curvature="0"
       id="path3211"
       d="m 1001.3037,1632.4083 c 0,0 -48.50639,-6e-4 -48.50639,40.7108 0,42.7388 48.54329,42.6642 48.54329,42.6642 l 31.1827,0 c 20.5782,0 30.3782,-7.0072 30.5929,-15.8678 0,-0.06 -0,-0.1241 0,-0.1842 0,-0.1387 0.018,-0.2844 0.018,-0.4239 0,-0.1425 -0.015,-0.2823 -0.018,-0.4239 l 0,-16.0152 -16.0152,0 c -0.1416,0 -0.2814,-0.018 -0.4239,-0.018 l -44.157,0 0,-17.508 44.157,0 c 0.38,0 0.7508,-0.012 1.1242,-0.037 l 15.3149,0 0,-15.9968 c 0,-0.1387 0.018,-0.2844 0.018,-0.4239 0,-0.1425 -0.015,-0.2823 -0.018,-0.4239 -0,-0.068 0,-0.1353 0,-0.2027 -0.328,-8.8276 -13.1315,-15.8494 -30.5929,-15.8494 z"
       style="fill:#333333;fill-opacity:1;fill-rule:evenodd;stroke:none" />
    <path
       style="fill:#333333;fill-opacity:1;fill-rule:evenodd;stroke:none"
       d="m 1150.6282,1632.4083 c 0,0 48.5064,-6e-4 48.5064,40.7108 0,42.7388 -48.5433,42.6642 -48.5433,42.6642 l -31.1826,0 c -20.5782,0 -30.3782,-7.0072 -30.593,-15.8678 -0,-0.06 0,-0.1241 0,-0.1842 -0,-0.1387 -0.018,-0.2844 -0.018,-0.4239 0,-0.1425 0.015,-0.2823 0.018,-0.4239 l 0,-16.0152 16.0152,0 c 0.1416,0 0.2814,-0.018 0.4239,-0.018 l 44.1571,0 0,-17.508 -44.1571,0 c -0.38,0 -0.7508,-0.012 -1.1242,-0.037 l -15.3149,0 0,-15.9968 c -0,-0.1387 -0.018,-0.2844 -0.018,-0.4239 0,-0.1425 0.015,-0.2823 0.018,-0.4239 0,-0.068 -0,-0.1353 0,-0.2027 0.328,-8.8276 13.1315,-15.8494 30.593,-15.8494 z"
       id="path3213"
       inkscape:connector-curvature="0"
       sodipodi:nodetypes="cscsccscccsccscccsccsc" />
    <path
       inkscape:connector-curvature="0"
       id="path3215"
       d="m 1004.3911,1572.3643 c 0,0 -140.3853,59.3083 -24.69267,92.1541 l 0,28.8459 c 0,0 -93.15882,-17.4218 -77.15369,-77.1537 16.00514,-59.732 103.84636,-75.8463 103.84636,-75.8463 z"
       style="fill:#333333;fill-opacity:1;stroke:none" />
    <path
       style="fill:#333333;fill-opacity:1;stroke:none"
       d="m 1148.6956,1568.3643 c 0,0 140.3853,59.3083 24.6927,92.1541 l 0,28.8459 c 0,0 93.1588,-17.4218 77.1537,-77.1537 -16.0052,-59.732 -103.8464,-75.8463 -103.8464,-75.8463 z"
       id="path3217"
       inkscape:connector-curvature="0" />
    <path
       transform="matrix(0.86907279,0,0,0.86907279,731.31216,1079.3129)"
       d="m 343.02654,419.66879 a 36.84359,36.84359 0 1 1 -73.68718,0 36.84359,36.84359 0 1 1 73.68718,0 z"
       sodipodi:ry="36.84359"
       sodipodi:rx="36.84359"
       sodipodi:cy="419.66879"
       sodipodi:cx="306.18295"
       id="path3219"
       style="fill:#333333;stroke:none"
       sodipodi:type="arc" />
    <text
       xml:space="preserve"
       style="font-size:40px;font-style:normal;font-variant:normal;font-weight:600;font-stretch:normal;text-align:start;line-height:125%;letter-spacing:0px;word-spacing:0px;writing-mode:lr-tb;text-anchor:start;fill:#ffffff;fill-opacity:1;stroke:none;font-family:URW Gothic L;-inkscape-font-specification:URW Gothic L Semi-Bold"
       x="982.87817"
       y="1590.2249"
       id="text3221"
       sodipodi:linespacing="125%"><tspan
         sodipodi:role="line"
         id="tspan3223"
         x="982.87817"
         y="1590.2249"
         style="font-size:40px;font-style:normal;font-variant:normal;font-weight:600;font-stretch:normal;text-align:start;line-height:125%;writing-mode:lr-tb;text-anchor:start;fill:#ffffff;font-family:URW Gothic L;-inkscape-font-specification:URW Gothic L Semi-Bold">DESURIUM</tspan></text>
    <path
       sodipodi:type="arc"
       style="fill:#333333;stroke:none"
       id="path3225"
       sodipodi:cx="306.18295"
       sodipodi:cy="419.66879"
       sodipodi:rx="36.84359"
       sodipodi:ry="36.84359"
       d="m 343.02654,419.66879 a 36.84359,36.84359 0 1 1 -73.68718,0 36.84359,36.84359 0 1 1 73.68718,0 z"
       transform="matrix(0.86907279,0,0,0.86907279,892.31216,1079.3129)" />
    <path
       style="fill:#333333;fill-opacity:1;stroke:none"
       d="m -197.09396,1149.4688 c -24.7353,0 -44.78125,20.0459 -44.78125,44.7812 0,17.4623 9.98254,32.582 24.5625,39.9688 l 0,17.5312 c 0,3.6563 2.96871,6.625 6.625,6.625 l 27.1875,0 c 3.65629,0 6.59375,-2.9687 6.59375,-6.625 l 0,-17.5312 c 14.58543,-7.3849 24.59375,-22.5025 24.59375,-39.9688 0,-24.7353 -20.04595,-44.7812 -44.78125,-44.7812 z m -9.0625,19.75 23.59375,30.2187 -16.28125,9.125 6.40625,21.0625 -20.3125,-26.9688 12.375,-6.625 -5.78125,-26.8124 z"
       id="path3231"
       inkscape:connector-curvature="0" />
    <path
       id="path3269"
       d="m -199.625,1345.4062 c -68.34423,0 -125.38852,28.6338 -138.71875,66.75 -5.50954,9.9445 -8.65625,21.376 -8.65625,33.5938 0,38.3593 30.89074,69.25 69.25,69.25 l 51.21875,0 0,14.7188 -59.84375,0 c -13.17556,0 -23.78125,10.6056 -23.78125,23.7812 l 0,0.9688 c -24.76116,11.3291 -52.59628,30.62 -60.9375,61.75 -10.45873,39.0323 25.68543,60.0003 52,69.8437 8.65683,29.7676 46.78125,29.7187 46.78125,29.7187 l 31.1875,0 c 20.57819,0 30.379,-7.0143 30.59375,-15.875 0.002,-0.06 -0.002,-0.1275 0,-0.1874 0.004,-0.1388 0.0312,-0.2668 0.0312,-0.4063 0,-0.1425 -0.0277,-0.2959 -0.0312,-0.4375 l 0,-16 -16,0 c -0.14162,0 -0.29499,-0.031 -0.4375,-0.031 l -44.15625,0 0,-17.5 44.15625,0 c 0.38003,0 0.75157,-0.01 1.125,-0.031 l 15.3125,0 0,-16 c 0.004,-0.1387 0.0312,-0.298 0.0312,-0.4375 0,-0.1425 -0.0277,-0.2648 -0.0312,-0.4062 -0.002,-0.068 0.002,-0.1514 0,-0.2188 -0.32801,-8.8276 -13.13231,-15.8438 -30.59375,-15.8438 l -31.21875,0 c 0,0 -33.69996,0.019 -44.90625,23.625 -40.37043,-19.248 -18.75568,-43.8581 7.09375,-61.4062 l 0,2.7812 c 0,13.1757 10.60569,23.7813 23.78125,23.7813 l 182.71875,0 c 13.175562,0 23.781252,-10.6056 23.781252,-23.7813 l 0,-3.9062 c 24.38615,17.6713 41.85905,41.3324 0.3125,59.7188 C -91.992378,1632.4054 -123,1632.4062 -123,1632.4062 l -31.21875,0 c -17.46144,0 -30.26574,7.0162 -30.59375,15.8438 -0.002,0.067 0.002,0.1507 0,0.2188 -0.004,0.1414 -0.0312,0.2637 -0.0312,0.4062 0,0.1395 0.0273,0.2988 0.0312,0.4375 l 0,16 15.3125,0 c 0.37343,0.025 0.74497,0.031 1.125,0.031 l 44.15625,0 0,17.5 -44.15625,0 c -0.14251,0 -0.29588,0.031 -0.4375,0.031 l -16,0 0,16 c -0.004,0.1416 -0.0312,0.295 -0.0312,0.4375 0,0.1395 0.0273,0.2675 0.0312,0.4063 0.002,0.06 -0.002,0.1276 0,0.1874 0.21475,8.8607 10.01556,15.875 30.59375,15.875 l 31.15625,0 c 0,0 41.459612,0.065 47.750002,-33.6562 26.33157,-9.8105 62.70512,-30.7707 52.21875,-69.9062 -7.87822,-29.4021 -33.16742,-48.2356 -56.8125,-59.7813 -0.54307,-12.6872 -10.92445,-22.7187 -23.750002,-22.7187 l -61.65625,0 0,-14.7188 47.625,0 c 38.359262,0 69.250002,-30.8907 69.250002,-69.25 0,-19.7186 -8.1709,-37.4439 -21.3125,-50.0312 -21.85956,-29.6144 -71.786892,-50.3126 -129.875002,-50.3126 z m -77.0625,52.625 157.9375,0 c 26.448262,0 47.750002,21.2705 47.750002,47.7188 0,26.4483 -21.30174,47.75 -47.750002,47.75 l -157.9375,0 c -26.44826,0 -47.75,-21.3017 -47.75,-47.75 0,-26.4483 21.30174,-47.7188 47.75,-47.7188 z"
       style="fill:#333333;fill-rule:evenodd;stroke:none"
       inkscape:connector-curvature="0" />
    <path
       sodipodi:type="arc"
       style="fill:#333333;stroke:none"
       id="path3271"
       sodipodi:cx="306.18295"
       sodipodi:cy="419.66879"
       sodipodi:rx="36.84359"
       sodipodi:ry="36.84359"
       d="m 343.02654,419.66879 a 36.84359,36.84359 0 1 1 -73.68718,0 36.84359,36.84359 0 1 1 73.68718,0 z"
       transform="matrix(0.86907279,0,0,0.86907279,-542.32868,1079.3129)" />
    <text
       sodipodi:linespacing="125%"
       id="text3273"
       y="1590.2249"
       x="-290.7626"
       style="font-size:40px;font-style:normal;font-variant:normal;font-weight:600;font-stretch:normal;text-align:start;line-height:125%;letter-spacing:0px;word-spacing:0px;writing-mode:lr-tb;text-anchor:start;fill:#ffffff;fill-opacity:1;stroke:none;font-family:URW Gothic L;-inkscape-font-specification:URW Gothic L Semi-Bold"
       xml:space="preserve"><tspan
         style="font-size:40px;font-style:normal;font-variant:normal;font-weight:600;font-stretch:normal;text-align:start;line-height:125%;writing-mode:lr-tb;text-anchor:start;fill:#ffffff;font-family:URW Gothic L;-inkscape-font-specification:URW Gothic L Semi-Bold"
         y="1590.2249"
         x="-290.7626"
         id="tspan3275"
         sodipodi:role="line">DESURIUM</tspan></text>
    <path
       transform="matrix(0.86907279,0,0,0.86907279,-381.32868,1079.3129)"
       d="m 343.02654,419.66879 a 36.84359,36.84359 0 1 1 -73.68718,0 36.84359,36.84359 0 1 1 73.68718,0 z"
       sodipodi:ry="36.84359"
       sodipodi:rx="36.84359"
       sodipodi:cy="419.66879"
       sodipodi:cx="306.18295"
       id="path3277"
       style="fill:#333333;stroke:none"
       sodipodi:type="arc" />
    <path
       inkscape:connector-curvature="0"
       id="path3279"
       d="m -197.71957,1272.7188 c -10.18517,0 -18.375,8.1898 -18.375,18.375 l 0,17.0937 36.75,0 0,-17.0937 c 0,-10.1852 -8.18983,-18.375 -18.375,-18.375 z m -18.375,46.7812 0,43.7188 c 0,10.1851 8.18983,18.4062 18.375,18.4062 10.18517,0 18.375,-8.2211 18.375,-18.4062 l 0,-43.7188 -36.75,0 z"
       style="fill:#333333;fill-opacity:1;stroke:none" />
    <path
       id="path3355"
       d="m 194.375,2109.0815 c -68.34423,0 -125.388523,28.6338 -138.71875,66.75 C 50.146705,2185.776 47,2197.2075 47,2209.4253 c 0,38.3593 30.890741,69.25 69.25,69.25 l 51.21875,0 0,14.7188 -59.84375,0 c -13.175563,0 -23.78125,10.6056 -23.78125,23.7812 l 0,0.9688 c -24.761158,11.3291 -52.596281,30.62 -60.9375,61.75 -10.458728,39.0323 25.685431,60.0003 52,69.8437 8.65683,29.7676 46.78125,29.7187 46.78125,29.7187 l 31.1875,0 c 20.57819,0 30.379,-7.0143 30.59375,-15.875 0.002,-0.06 -0.002,-0.1275 0,-0.1874 0.004,-0.1388 0.0312,-0.2668 0.0312,-0.4063 0,-0.1425 -0.0277,-0.2959 -0.0312,-0.4375 l 0,-16 -16,0 c -0.14162,0 -0.29499,-0.031 -0.4375,-0.031 l -44.15625,0 0,-17.5 44.15625,0 c 0.38003,0 0.75157,-0.01 1.125,-0.031 l 15.3125,0 0,-16 c 0.004,-0.1387 0.0312,-0.298 0.0312,-0.4375 0,-0.1425 -0.0277,-0.2648 -0.0312,-0.4062 -0.002,-0.068 0.002,-0.1514 0,-0.2188 -0.32801,-8.8276 -13.13231,-15.8438 -30.59375,-15.8438 l -31.21875,0 c 0,0 -33.699957,0.019 -44.90625,23.625 -40.370435,-19.248 -18.755684,-43.8581 7.09375,-61.4062 l 0,2.7812 c 0,13.1757 10.605687,23.7813 23.78125,23.7813 l 182.71875,0 c 13.17556,0 23.78125,-10.6056 23.78125,-23.7813 l 0,-3.9062 c 24.38615,17.6713 41.85905,41.3324 0.3125,59.7188 C 302.00762,2396.0807 271,2396.0815 271,2396.0815 l -31.21875,0 c -17.46144,0 -30.26574,7.0162 -30.59375,15.8438 -0.002,0.067 0.002,0.1507 0,0.2188 -0.004,0.1414 -0.0312,0.2637 -0.0312,0.4062 0,0.1395 0.0273,0.2988 0.0312,0.4375 l 0,16 15.3125,0 c 0.37343,0.025 0.74497,0.031 1.125,0.031 l 44.15625,0 0,17.5 -44.15625,0 c -0.14251,0 -0.29588,0.031 -0.4375,0.031 l -16,0 0,16 c -0.004,0.1416 -0.0312,0.295 -0.0312,0.4375 0,0.1395 0.0273,0.2675 0.0312,0.4063 0.002,0.06 -0.002,0.1276 0,0.1874 0.21475,8.8607 10.01556,15.875 30.59375,15.875 l 31.15625,0 c 0,0 41.45961,0.065 47.75,-33.6562 26.33157,-9.8105 62.70512,-30.7707 52.21875,-69.9062 -7.87822,-29.4021 -33.16742,-48.2356 -56.8125,-59.7813 -0.54307,-12.6872 -10.92445,-22.7187 -23.75,-22.7187 l -61.65625,0 0,-14.7188 47.625,0 c 38.35926,0 69.25,-30.8907 69.25,-69.25 0,-19.7186 -8.1709,-37.4439 -21.3125,-50.0312 -21.85956,-29.6144 -71.78689,-50.3126 -129.875,-50.3126 z m -77.0625,52.625 157.9375,0 c 26.44826,0 47.75,21.2705 47.75,47.7188 0,26.4483 -21.30174,47.75 -47.75,47.75 l -157.9375,0 c -26.448259,0 -47.75,-21.3017 -47.75,-47.75 0,-26.4483 21.301741,-47.7188 47.75,-47.7188 z"
       style="fill:#1480cd;fill-rule:evenodd;stroke:none;fill-opacity:1"
       inkscape:connector-curvature="0" />
    <path
       sodipodi:type="arc"
       style="fill:#1480cd;stroke:none;fill-opacity:1"
       id="path3357"
       sodipodi:cx="306.18295"
       sodipodi:cy="419.66879"
       sodipodi:rx="36.84359"
       sodipodi:ry="36.84359"
       d="m 343.02654,419.66879 a 36.84359,36.84359 0 1 1 -73.68718,0 36.84359,36.84359 0 1 1 73.68718,0 z"
       transform="matrix(0.86907279,0,0,0.86907279,-148.32868,1842.9882)" />
    <text
       sodipodi:linespacing="125%"
       id="text3359"
       y="2353.9001"
       x="103.2374"
       style="font-size:40px;font-style:normal;font-variant:normal;font-weight:600;font-stretch:normal;text-align:start;line-height:125%;letter-spacing:0px;word-spacing:0px;writing-mode:lr-tb;text-anchor:start;fill:#ffffff;fill-opacity:1;stroke:none;font-family:URW Gothic L;-inkscape-font-specification:URW Gothic L Semi-Bold"
       xml:space="preserve"><tspan
         style="font-size:40px;font-style:normal;font-variant:normal;font-weight:600;font-stretch:normal;text-align:start;line-height:125%;writing-mode:lr-tb;text-anchor:start;fill:#ffffff;font-family:URW Gothic L;-inkscape-font-specification:URW Gothic L Semi-Bold"
         y="2353.9001"
         x="103.2374"
         id="tspan3361"
         sodipodi:role="line">DESURIUM</tspan></text>
    <path
       transform="matrix(0.86907279,0,0,0.86907279,12.671322,1842.9882)"
       d="m 343.02654,419.66879 a 36.84359,36.84359 0 1 1 -73.68718,0 36.84359,36.84359 0 1 1 73.68718,0 z"
       sodipodi:ry="36.84359"
       sodipodi:rx="36.84359"
       sodipodi:cy="419.66879"
       sodipodi:cx="306.18295"
       id="path3363"
       style="fill:#1480cd;stroke:none;fill-opacity:1"
       sodipodi:type="arc" />
    <path
       inkscape:connector-curvature="0"
       id="path3365"
       d="m 196.28043,2036.3941 c -10.18517,0 -18.375,8.1898 -18.375,18.375 l 0,17.0937 36.75,0 0,-17.0937 c 0,-10.1852 -8.18983,-18.375 -18.375,-18.375 z m -18.375,46.7812 0,43.7188 c 0,10.1851 8.18983,18.4062 18.375,18.4062 10.18517,0 18.375,-8.2211 18.375,-18.4062 l 0,-43.7188 -36.75,0 z"
       style="fill:#1480cd;fill-opacity:1;stroke:none" />
    <path
       inkscape:connector-curvature="0"
       id="path3367"
       d="m 591.39064,1979.3129 c -6.45557,0 -11.65625,5.2007 -11.65625,11.6563 l 0,1.3125 c -3.83281,1.0749 -7.47695,2.6204 -10.875,4.5312 l -0.9375,-0.9374 c -4.56478,-4.5649 -11.93522,-4.5649 -16.5,0 l -2.5,2.5 c -4.56478,4.5646 -4.56478,11.9351 0,16.5 l 0.9375,0.9374 c -1.91099,3.3982 -3.45632,7.0423 -4.53125,10.875 l -1.3125,0 c -6.45557,0 -11.65625,5.2007 -11.65625,11.6563 l 0,3.5625 c 0,6.4556 5.20068,11.6562 11.65625,11.6562 l 1.3125,0 c 1.07493,3.833 2.62026,7.4771 4.53125,10.875 l -0.9375,0.9376 c -4.56478,4.5646 -4.56478,11.9351 0,16.5 l 2.5,2.5 c 4.56478,4.5646 11.93522,4.5646 16.5,0 l 0.9375,-0.9376 c 3.39805,1.9111 7.04219,3.4564 10.875,4.5313 l 0,1.3125 c 0,6.4556 5.20068,11.6562 11.65625,11.6562 l 3.5625,0 c 6.45557,0 11.65625,-5.2006 11.65625,-11.6562 l 0,-1.3125 c 3.83281,-1.0749 7.47695,-2.6202 10.875,-4.5313 l 0.9375,0.9376 c 4.56478,4.5646 11.93522,4.5646 16.5,0 l 2.5,-2.5 c 4.56478,-4.5649 4.56478,-11.9354 0,-16.5 l -0.9375,-0.9376 c 1.91099,-3.3979 3.45632,-7.042 4.53125,-10.875 l 1.3125,0 c 6.45557,0 11.65625,-5.2006 11.65625,-11.6562 l 0,-3.5625 c 0,-6.4556 -5.20068,-11.6563 -11.65625,-11.6563 l -1.3125,0 c -1.07493,-3.8327 -2.62026,-7.4768 -4.53125,-10.875 l 0.9375,-0.9374 c 4.56478,-4.5649 4.56478,-11.9354 0,-16.5 l -2.5,-2.5 c -4.56478,-4.5649 -11.93522,-4.5649 -16.5,0 l -0.9375,0.9374 c -3.39805,-1.9108 -7.04219,-3.4563 -10.875,-4.5312 l 0,-1.3125 c 0,-6.4556 -5.20068,-11.6563 -11.65625,-11.6563 l -3.5625,0 z m 1.78125,28.4376 c 17.87929,0 32.375,14.4957 32.375,32.375 0,17.8792 -14.49571,32.375 -32.375,32.375 -17.87929,0 -32.375,-14.4958 -32.375,-32.375 0,-17.8793 14.49571,-32.375 32.375,-32.375 z"
       style="fill:#1480cd;fill-opacity:1;stroke:none" />
    <path
       id="path3369"
       d="m 591.28125,2109.0815 c -68.24925,0 -125.2233,28.5567 -138.65625,66.5938 -5.5645,9.9812 -8.71875,21.4669 -8.71875,33.75 0,38.3593 30.85949,69.25 69.21875,69.25 l 51.21875,0 0,14.7188 -59.84375,0 c -13.17556,0 -23.78125,10.6056 -23.78125,23.7812 l 0,1 c -24.75384,11.3311 -52.59957,30.6011 -60.9375,61.7188 -10.45413,39.0152 25.68836,59.9637 52,69.8124 8.64054,29.7967 46.8125,29.75 46.8125,29.75 l 31.1875,0 c 20.57819,0 30.379,-7.0143 30.59375,-15.875 0.002,-0.06 -0.002,-0.1275 0,-0.1874 0.004,-0.1388 0,-0.2668 0,-0.4063 0,-0.1425 0.004,-0.2959 0,-0.4375 l 0,-16 -16.03125,0 c -0.14162,0 -0.26374,-0.031 -0.40625,-0.031 l -44.15625,0 0,-17.5 44.15625,0 c 0.38003,0 0.75157,-0.01 1.125,-0.031 l 15.3125,0 0,-16 c 0.004,-0.1387 0,-0.298 0,-0.4375 0,-0.1425 0.004,-0.2648 0,-0.4062 -0.002,-0.068 0.002,-0.1514 0,-0.2188 -0.32801,-8.8276 -13.13231,-15.8438 -30.59375,-15.8438 l -31.21875,0 c 0,0 -33.73121,0.019 -44.9375,23.625 -40.32901,-19.2432 -18.74479,-43.8624 7.09375,-61.4062 l 0,2.7812 c 0,13.1757 10.60569,23.7813 23.78125,23.7813 l 182.71875,0 c 13.17556,0 23.78125,-10.6056 23.78125,-23.7813 l 0,-3.9062 c 24.38934,17.6733 41.87661,41.3313 0.3125,59.7188 -12.42988,-20.8134 -43.4375,-20.8126 -43.4375,-20.8126 l -31.21875,0 c -17.46144,0 -30.26574,7.0162 -30.59375,15.8438 -0.002,0.067 0.002,0.1507 0,0.2188 -0.004,0.1414 0,0.2637 0,0.4062 0,0.1395 -0.004,0.2988 0,0.4375 l 0,16 15.3125,0 c 0.37343,0.025 0.74497,0.031 1.125,0.031 l 44.15625,0 0,17.5 -44.15625,0 c -0.14251,0 -0.26463,0.031 -0.40625,0.031 l -16.03125,0 0,16 c -0.004,0.1416 0,0.295 0,0.4375 0,0.1395 -0.004,0.2675 0,0.4063 0.002,0.06 -0.002,0.1276 0,0.1874 0.21475,8.8607 10.01556,15.875 30.59375,15.875 l 31.1875,0 c 0,0 41.42776,0.064 47.71875,-33.6562 26.33164,-9.8104 62.70525,-30.7703 52.21875,-69.9062 -7.88031,-29.4099 -33.16202,-48.2364 -56.8125,-59.7813 -0.54307,-12.6872 -10.92445,-22.7187 -23.75,-22.7187 l -61.625,0 0,-14.7188 47.625,0 c 38.35926,0 69.21875,-30.8907 69.21875,-69.25 0,-19.7391 -8.17816,-37.4727 -21.34375,-50.0625 -21.87309,-29.5955 -71.74736,-50.2813 -129.8125,-50.2813 z m -77.09375,52.625 157.96875,0 c 26.44826,0 47.75,21.2705 47.75,47.7188 0,26.4483 -21.30174,47.75 -47.75,47.75 l -157.96875,0 c -26.44826,0 -47.75,-21.3017 -47.75,-47.75 0,-26.4483 21.30174,-47.7188 47.75,-47.7188 z"
       style="fill:#1480cd;fill-rule:evenodd;stroke:none;fill-opacity:1"
       inkscape:connector-curvature="0" />
    <path
       transform="matrix(0.86907279,0,0,0.86907279,248.56281,1842.9882)"
       d="m 343.02654,419.66879 a 36.84359,36.84359 0 1 1 -73.68718,0 36.84359,36.84359 0 1 1 73.68718,0 z"
       sodipodi:ry="36.84359"
       sodipodi:rx="36.84359"
       sodipodi:cy="419.66879"
       sodipodi:cx="306.18295"
       id="path3371"
       style="fill:#1480cd;stroke:none;fill-opacity:1"
       sodipodi:type="arc" />
    <text
       xml:space="preserve"
       style="font-size:40px;font-style:normal;font-variant:normal;font-weight:600;font-stretch:normal;text-align:start;line-height:125%;letter-spacing:0px;word-spacing:0px;writing-mode:lr-tb;text-anchor:start;fill:#ffffff;fill-opacity:1;stroke:none;font-family:URW Gothic L;-inkscape-font-specification:URW Gothic L Semi-Bold"
       x="500.12885"
       y="2353.9001"
       id="text3373"
       sodipodi:linespacing="125%"><tspan
         sodipodi:role="line"
         id="tspan3375"
         x="500.12885"
         y="2353.9001"
         style="font-size:40px;font-style:normal;font-variant:normal;font-weight:600;font-stretch:normal;text-align:start;line-height:125%;writing-mode:lr-tb;text-anchor:start;fill:#ffffff;font-family:URW Gothic L;-inkscape-font-specification:URW Gothic L Semi-Bold">DESURIUM</tspan></text>
    <path
       sodipodi:type="arc"
       style="fill:#1480cd;stroke:none;fill-opacity:1"
       id="path3377"
       sodipodi:cx="306.18295"
       sodipodi:cy="419.66879"
       sodipodi:rx="36.84359"
       sodipodi:ry="36.84359"
       d="m 343.02654,419.66879 a 36.84359,36.84359 0 1 1 -73.68718,0 36.84359,36.84359 0 1 1 73.68718,0 z"
       transform="matrix(0.86907279,0,0,0.86907279,409.56281,1842.9882)" />
    <rect
       ry="13.848274"
       rx="18.384777"
       y="2072.3938"
       x="574.78711"
       height="82.024391"
       width="36.769554"
       id="rect3379"
       style="fill:#1480cd;fill-opacity:1;stroke:none" />
    <path
       inkscape:connector-curvature="0"
       id="path3381"
       d="m -197.09396,1913.1441 c -24.7353,0 -44.78125,20.0459 -44.78125,44.7812 0,17.4623 9.98254,32.582 24.5625,39.9688 l 0,17.5312 c 0,3.6563 2.96871,6.625 6.625,6.625 l 27.1875,0 c 3.65629,0 6.59375,-2.9687 6.59375,-6.625 l 0,-17.5312 c 14.58543,-7.3849 24.59375,-22.5025 24.59375,-39.9688 0,-24.7353 -20.04595,-44.7812 -44.78125,-44.7812 z m -9.0625,19.75 23.59375,30.2187 -16.28125,9.125 6.40625,21.0625 -20.3125,-26.9688 12.375,-6.625 -5.78125,-26.8124 z"
       style="fill:#1480cd;fill-opacity:1;stroke:none" />
    <path
       inkscape:connector-curvature="0"
       style="fill:#1480cd;fill-rule:evenodd;stroke:none;fill-opacity:1"
       d="m -199.625,2109.0815 c -68.34423,0 -125.38852,28.6338 -138.71875,66.75 -5.50954,9.9445 -8.65625,21.376 -8.65625,33.5938 0,38.3593 30.89074,69.25 69.25,69.25 l 51.21875,0 0,14.7188 -59.84375,0 c -13.17556,0 -23.78125,10.6056 -23.78125,23.7812 l 0,0.9688 c -24.76116,11.3291 -52.59628,30.62 -60.9375,61.75 -10.45873,39.0323 25.68543,60.0003 52,69.8437 8.65683,29.7676 46.78125,29.7187 46.78125,29.7187 l 31.1875,0 c 20.57819,0 30.379,-7.0143 30.59375,-15.875 0.002,-0.06 -0.002,-0.1275 0,-0.1874 0.004,-0.1388 0.0312,-0.2668 0.0312,-0.4063 0,-0.1425 -0.0277,-0.2959 -0.0312,-0.4375 l 0,-16 -16,0 c -0.14162,0 -0.29499,-0.031 -0.4375,-0.031 l -44.15625,0 0,-17.5 44.15625,0 c 0.38003,0 0.75157,-0.01 1.125,-0.031 l 15.3125,0 0,-16 c 0.004,-0.1387 0.0312,-0.298 0.0312,-0.4375 0,-0.1425 -0.0277,-0.2648 -0.0312,-0.4062 -0.002,-0.068 0.002,-0.1514 0,-0.2188 -0.32801,-8.8276 -13.13231,-15.8438 -30.59375,-15.8438 l -31.21875,0 c 0,0 -33.69996,0.019 -44.90625,23.625 -40.37043,-19.248 -18.75568,-43.8581 7.09375,-61.4062 l 0,2.7812 c 0,13.1757 10.60569,23.7813 23.78125,23.7813 l 182.71875,0 c 13.175562,0 23.781252,-10.6056 23.781252,-23.7813 l 0,-3.9062 c 24.38615,17.6713 41.85905,41.3324 0.3125,59.7188 C -91.992378,2396.0807 -123,2396.0815 -123,2396.0815 l -31.21875,0 c -17.46144,0 -30.26574,7.0162 -30.59375,15.8438 -0.002,0.067 0.002,0.1507 0,0.2188 -0.004,0.1414 -0.0312,0.2637 -0.0312,0.4062 0,0.1395 0.0273,0.2988 0.0312,0.4375 l 0,16 15.3125,0 c 0.37343,0.025 0.74497,0.031 1.125,0.031 l 44.15625,0 0,17.5 -44.15625,0 c -0.14251,0 -0.29588,0.031 -0.4375,0.031 l -16,0 0,16 c -0.004,0.1416 -0.0312,0.295 -0.0312,0.4375 0,0.1395 0.0273,0.2675 0.0312,0.4063 0.002,0.06 -0.002,0.1276 0,0.1874 0.21475,8.8607 10.01556,15.875 30.59375,15.875 l 31.15625,0 c 0,0 41.459612,0.065 47.750002,-33.6562 26.33157,-9.8105 62.70512,-30.7707 52.21875,-69.9062 -7.87822,-29.4021 -33.16742,-48.2356 -56.8125,-59.7813 -0.54307,-12.6872 -10.92445,-22.7187 -23.750002,-22.7187 l -61.65625,0 0,-14.7188 47.625,0 c 38.359262,0 69.250002,-30.8907 69.250002,-69.25 0,-19.7186 -8.1709,-37.4439 -21.3125,-50.0312 -21.85956,-29.6144 -71.786892,-50.3126 -129.875002,-50.3126 z m -77.0625,52.625 157.9375,0 c 26.448262,0 47.750002,21.2705 47.750002,47.7188 0,26.4483 -21.30174,47.75 -47.750002,47.75 l -157.9375,0 c -26.44826,0 -47.75,-21.3017 -47.75,-47.75 0,-26.4483 21.30174,-47.7188 47.75,-47.7188 z"
       id="path3383" />
    <path
       transform="matrix(0.86907279,0,0,0.86907279,-542.32868,1842.9882)"
       d="m 343.02654,419.66879 a 36.84359,36.84359 0 1 1 -73.68718,0 36.84359,36.84359 0 1 1 73.68718,0 z"
       sodipodi:ry="36.84359"
       sodipodi:rx="36.84359"
       sodipodi:cy="419.66879"
       sodipodi:cx="306.18295"
       id="path3385"
       style="fill:#1480cd;stroke:none;fill-opacity:1"
       sodipodi:type="arc" />
    <text
       xml:space="preserve"
       style="font-size:40px;font-style:normal;font-variant:normal;font-weight:600;font-stretch:normal;text-align:start;line-height:125%;letter-spacing:0px;word-spacing:0px;writing-mode:lr-tb;text-anchor:start;fill:#ffffff;fill-opacity:1;stroke:none;font-family:URW Gothic L;-inkscape-font-specification:URW Gothic L Semi-Bold"
       x="-290.7626"
       y="2353.9001"
       id="text3387"
       sodipodi:linespacing="125%"><tspan
         sodipodi:role="line"
         id="tspan3389"
         x="-290.7626"
         y="2353.9001"
         style="font-size:40px;font-style:normal;font-variant:normal;font-weight:600;font-stretch:normal;text-align:start;line-height:125%;writing-mode:lr-tb;text-anchor:start;fill:#ffffff;font-family:URW Gothic L;-inkscape-font-specification:URW Gothic L Semi-Bold">DESURIUM</tspan></text>
    <path
       sodipodi:type="arc"
       style="fill:#1480cd;stroke:none;fill-opacity:1"
       id="path3391"
       sodipodi:cx="306.18295"
       sodipodi:cy="419.66879"
       sodipodi:rx="36.84359"
       sodipodi:ry="36.84359"
       d="m 343.02654,419.66879 a 36.84359,36.84359 0 1 1 -73.68718,0 36.84359,36.84359 0 1 1 73.68718,0 z"
       transform="matrix(0.86907279,0,0,0.86907279,-381.32868,1842.9882)" />
    <path
       style="fill:#1480cd;fill-opacity:1;stroke:none"
       d="m -197.71957,2036.3941 c -10.18517,0 -18.375,8.1898 -18.375,18.375 l 0,17.0937 36.75,0 0,-17.0937 c 0,-10.1852 -8.18983,-18.375 -18.375,-18.375 z m -18.375,46.7812 0,43.7188 c 0,10.1851 8.18983,18.4062 18.375,18.4062 10.18517,0 18.375,-8.2211 18.375,-18.4062 l 0,-43.7188 -36.75,0 z"
       id="path3393"
       inkscape:connector-curvature="0" />
    <path
       style="fill:#1480cd;fill-opacity:1;stroke:none"
       d="m 993.0273,1979.3129 c -6.4556,0 -11.6563,5.2007 -11.6563,11.6563 l 0,1.3125 c -3.8328,1.0749 -7.4769,2.6204 -10.875,4.5312 l -0.9375,-0.9374 c -4.5647,-4.5649 -11.9352,-4.5649 -16.5,0 l -2.5,2.5 c -4.56474,4.5646 -4.56474,11.9351 0,16.5 l 0.9375,0.9374 c -1.91095,3.3982 -3.45628,7.0423 -4.53121,10.875 l -1.3125,0 c -6.45557,0 -11.65625,5.2007 -11.65625,11.6563 l 0,3.5625 c 0,6.4556 5.20068,11.6562 11.65625,11.6562 l 1.3125,0 c 1.07493,3.833 2.62026,7.4771 4.53121,10.875 l -0.9375,0.9376 c -4.56474,4.5646 -4.56474,11.9351 0,16.5 l 2.5,2.5 c 4.5648,4.5646 11.9353,4.5646 16.5,0 l 0.9375,-0.9376 c 3.3981,1.9111 7.0422,3.4564 10.875,4.5313 l 0,1.3125 c 0,6.4556 5.2007,11.6562 11.6563,11.6562 l 3.5625,0 c 6.4556,0 11.6562,-5.2006 11.6562,-11.6562 l 0,-1.3125 c 3.8328,-1.0749 7.477,-2.6202 10.875,-4.5313 l 0.9375,0.9376 c 4.5648,4.5646 11.9353,4.5646 16.5,0 l 2.5,-2.5 c 4.5648,-4.5649 4.5648,-11.9354 0,-16.5 l -0.9375,-0.9376 c 1.911,-3.3979 3.4564,-7.042 4.5313,-10.875 l 1.3125,0 c 6.4556,0 11.6562,-5.2006 11.6562,-11.6562 l 0,-3.5625 c 0,-6.4556 -5.2006,-11.6563 -11.6562,-11.6563 l -1.3125,0 c -1.0749,-3.8327 -2.6203,-7.4768 -4.5313,-10.875 l 0.9375,-0.9374 c 4.5648,-4.5649 4.5648,-11.9354 0,-16.5 l -2.5,-2.5 c -4.5647,-4.5649 -11.9352,-4.5649 -16.5,0 l -0.9375,0.9374 c -3.398,-1.9108 -7.0422,-3.4563 -10.875,-4.5312 l 0,-1.3125 c 0,-6.4556 -5.2006,-11.6563 -11.6562,-11.6563 l -3.5625,0 z m 1.7812,28.4376 c 17.8793,0 32.375,14.4957 32.375,32.375 0,17.8792 -14.4957,32.375 -32.375,32.375 -17.8793,0 -32.375,-14.4958 -32.375,-32.375 0,-17.8793 14.4957,-32.375 32.375,-32.375 z"
       id="path3395"
       inkscape:connector-curvature="0" />
    <path
       inkscape:connector-curvature="0"
       style="fill:#1480cd;fill-rule:evenodd;stroke:none;fill-opacity:1"
       d="m 992.9179,2109.0815 c -68.24925,0 -125.2233,28.5567 -138.65625,66.5938 -5.5645,9.9812 -8.71875,21.4669 -8.71875,33.75 0,38.3593 30.85949,69.25 69.21875,69.25 l 51.21875,0 0,14.7188 -59.84375,0 c -13.17556,0 -23.78125,10.6056 -23.78125,23.7812 l 0,1 c -24.75384,11.3311 -52.59957,30.6011 -60.9375,61.7188 -10.45413,39.0152 25.68836,59.9637 52,69.8124 8.64054,29.7967 46.8125,29.75 46.8125,29.75 l 31.1875,0 c 20.5782,0 30.379,-7.0143 30.5937,-15.875 0,-0.06 0,-0.1275 0,-0.1874 0,-0.1388 0,-0.2668 0,-0.4063 0,-0.1425 0,-0.2959 0,-0.4375 l 0,-16 -16.0312,0 c -0.1416,0 -0.2637,-0.031 -0.4063,-0.031 l -44.1562,0 0,-17.5 44.1562,0 c 0.3801,0 0.7516,-0.01 1.125,-0.031 l 15.3125,0 0,-16 c 0,-0.1387 0,-0.298 0,-0.4375 0,-0.1425 0,-0.2648 0,-0.4062 0,-0.068 0,-0.1514 0,-0.2188 -0.328,-8.8276 -13.1323,-15.8438 -30.5937,-15.8438 l -31.21875,0 c 0,0 -33.73121,0.019 -44.9375,23.625 -40.32901,-19.2432 -18.74479,-43.8624 7.09375,-61.4062 l 0,2.7812 c 0,13.1757 10.60569,23.7813 23.78125,23.7813 l 182.71875,0 c 13.1756,0 23.7812,-10.6056 23.7812,-23.7813 l 0,-3.9062 c 24.3894,17.6733 41.8767,41.3313 0.3125,59.7188 -12.4298,-20.8134 -43.4375,-20.8126 -43.4375,-20.8126 l -31.2187,0 c -17.4614,0 -30.2657,7.0162 -30.5938,15.8438 0,0.067 0,0.1507 0,0.2188 0,0.1414 0,0.2637 0,0.4062 0,0.1395 0,0.2988 0,0.4375 l 0,16 15.3125,0 c 0.3735,0.025 0.745,0.031 1.125,0.031 l 44.1563,0 0,17.5 -44.1563,0 c -0.1425,0 -0.2646,0.031 -0.4062,0.031 l -16.0313,0 0,16 c 0,0.1416 0,0.295 0,0.4375 0,0.1395 0,0.2675 0,0.4063 0,0.06 0,0.1276 0,0.1874 0.2148,8.8607 10.0156,15.875 30.5938,15.875 l 31.1875,0 c 0,0 41.4278,0.064 47.7187,-33.6562 26.3317,-9.8104 62.7053,-30.7703 52.2188,-69.9062 -7.8803,-29.4099 -33.162,-48.2364 -56.8125,-59.7813 -0.5431,-12.6872 -10.9245,-22.7187 -23.75,-22.7187 l -61.625,0 0,-14.7188 47.625,0 c 38.3593,0 69.2187,-30.8907 69.2187,-69.25 0,-19.7391 -8.1781,-37.4727 -21.3437,-50.0625 -21.8731,-29.5955 -71.7474,-50.2813 -129.8125,-50.2813 z m -77.09375,52.625 157.96875,0 c 26.4483,0 47.75,21.2705 47.75,47.7188 0,26.4483 -21.3017,47.75 -47.75,47.75 l -157.96875,0 c -26.44826,0 -47.75,-21.3017 -47.75,-47.75 0,-26.4483 21.30174,-47.7188 47.75,-47.7188 z"
       id="path3397" />
    <path
       sodipodi:type="arc"
       style="fill:#1480cd;stroke:none;fill-opacity:1"
       id="path3399"
       sodipodi:cx="306.18295"
       sodipodi:cy="419.66879"
       sodipodi:rx="36.84359"
       sodipodi:ry="36.84359"
       d="m 343.02654,419.66879 a 36.84359,36.84359 0 1 1 -73.68718,0 36.84359,36.84359 0 1 1 73.68718,0 z"
       transform="matrix(0.86907279,0,0,0.86907279,650.19946,1842.9882)" />
    <text
       sodipodi:linespacing="125%"
       id="text3401"
       y="2353.9001"
       x="901.7655"
       style="font-size:40px;font-style:normal;font-variant:normal;font-weight:600;font-stretch:normal;text-align:start;line-height:125%;letter-spacing:0px;word-spacing:0px;writing-mode:lr-tb;text-anchor:start;fill:#ffffff;fill-opacity:1;stroke:none;font-family:URW Gothic L;-inkscape-font-specification:URW Gothic L Semi-Bold"
       xml:space="preserve"><tspan
         style="font-size:40px;font-style:normal;font-variant:normal;font-weight:600;font-stretch:normal;text-align:start;line-height:125%;writing-mode:lr-tb;text-anchor:start;fill:#ffffff;font-family:URW Gothic L;-inkscape-font-specification:URW Gothic L Semi-Bold"
         y="2353.9001"
         x="901.7655"
         id="tspan3403"
         sodipodi:role="line">DESURIUM</tspan></text>
    <path
       transform="matrix(0.86907279,0,0,0.86907279,811.19946,1842.9882)"
       d="m 343.02654,419.66879 a 36.84359,36.84359 0 1 1 -73.68718,0 36.84359,36.84359 0 1 1 73.68718,0 z"
       sodipodi:ry="36.84359"
       sodipodi:rx="36.84359"
       sodipodi:cy="419.66879"
       sodipodi:cx="306.18295"
       id="path3405"
       style="fill:#1480cd;stroke:none;fill-opacity:1"
       sodipodi:type="arc" />
    <path
       inkscape:connector-curvature="0"
       id="path4179"
       d="m 91.671693,2904.8984 c -4.12017,0 -7.439425,3.3193 -7.439425,7.4393 l 0,0.8378 c -2.446216,0.6861 -4.771998,1.6724 -6.940774,2.8919 l -0.598343,-0.5982 c -2.913337,-2.9134 -7.617426,-2.9134 -10.530829,0 l -1.59558,1.5955 c -2.913363,2.9134 -2.913363,7.6175 0,10.5309 l 0.598342,0.5982 c -1.219629,2.169 -2.205909,4.4946 -2.891963,6.9409 l -0.837679,0 c -4.120153,0 -7.439394,3.3192 -7.439394,7.4393 l 0,2.2738 c 0,4.1201 3.319241,7.4393 7.439394,7.4393 l 0.837679,0 c 0.686054,2.4464 1.672334,4.7722 2.891963,6.9408 l -0.598342,0.5984 c -2.913363,2.9132 -2.913363,7.6173 0,10.5309 l 1.59558,1.5955 c 2.913403,2.9133 7.617492,2.9133 10.530829,0 l 0.598343,-0.5983 c 2.168776,1.2197 4.494558,2.2059 6.940774,2.8919 l 0,0.8378 c 0,4.1201 3.319255,7.4393 7.439425,7.4393 l 2.273702,0 c 4.120171,0 7.439365,-3.3192 7.439365,-7.4393 l 0,-0.8378 c 2.44621,-0.686 4.77205,-1.6722 6.94077,-2.8919 l 0.59834,0.5983 c 2.91341,2.9133 7.61749,2.9133 10.53083,0 l 1.59558,-1.5955 c 2.91341,-2.9136 2.91341,-7.6177 0,-10.5309 l -0.59834,-0.5984 c 1.21966,-2.1686 2.20598,-4.4944 2.89202,-6.9408 l 0.83769,0 c 4.12016,0 7.43935,-3.3192 7.43935,-7.4393 l 0,-2.2738 c 0,-4.1201 -3.31919,-7.4393 -7.43935,-7.4393 l -0.83769,0 c -0.68604,-2.4463 -1.67236,-4.7719 -2.89202,-6.9409 l 0.59834,-0.5982 c 2.91341,-2.9134 2.91341,-7.6175 0,-10.5309 l -1.59558,-1.5955 c -2.91334,-2.9134 -7.61742,-2.9134 -10.53083,0 l -0.59834,0.5982 c -2.16872,-1.2195 -4.49456,-2.2058 -6.94077,-2.8919 l 0,-0.8378 c 0,-4.12 -3.319194,-7.4393 -7.439365,-7.4393 l -2.273702,0 z m 1.136819,18.1499 c 11.411138,0 20.662768,9.2515 20.662768,20.6626 0,11.4111 -9.25163,20.6627 -20.662768,20.6627 -11.411143,0 -20.662765,-9.2516 -20.662765,-20.6627 0,-11.4111 9.251622,-20.6626 20.662765,-20.6626 z"
       style="fill:#1480cd;fill-opacity:1;stroke:none" />
    <path
       style="fill:#1480cd;fill-opacity:1;fill-rule:evenodd;stroke:none"
       d="M 14.90625 2845.0938 C -53.343 2845.0938 -110.31705 2873.6504 -123.75 2911.6875 C -129.3145 2921.6687 -132.46875 2933.1544 -132.46875 2945.4375 C -132.46875 2983.7968 -101.60927 3014.6875 -63.25 3014.6875 L -12.03125 3014.6875 L -12.03125 3029.4062 L -71.875 3029.4062 C -85.05056 3029.4062 -95.65625 3040.0119 -95.65625 3053.1875 L -95.65625 3054.1875 C -120.41009 3065.5186 -148.25582 3084.7885 -156.59375 3115.9062 C -167.04788 3154.9214 -130.90539 3175.87 -104.59375 3185.7188 C -95.953205 3215.5154 -57.78125 3215.4688 -57.78125 3215.4688 L -26.59375 3215.4688 C -6.0155504 3215.4688 3.7853 3208.4545 4 3199.5938 L 4 3199.4062 L 4 3199 L 4 3198.5625 L 4 3182.5625 L -12.03125 3182.5625 C -12.17285 3182.5625 -12.2949 3182.5312 -12.4375 3182.5312 L -56.59375 3182.5312 L -56.59375 3165.0312 L -12.4375 3165.0312 C -12.0574 3165.0312 -11.6859 3165.021 -11.3125 3165 L 4 3165 L 4 3149 L 4 3148.5625 L 4 3148.1562 L 4 3147.9375 C 3.672 3139.1099 -9.1323504 3132.0938 -26.59375 3132.0938 L -57.8125 3132.0938 C -57.8125 3132.0938 -91.543705 3132.1127 -102.75 3155.7188 C -143.07901 3136.4756 -121.49479 3111.8563 -95.65625 3094.3125 L -95.65625 3097.0938 C -95.65625 3110.2694 -85.05056 3120.875 -71.875 3120.875 L 110.84375 3120.875 C 124.01935 3120.875 134.625 3110.2695 134.625 3097.0938 L 134.625 3093.1875 C 159.0144 3110.8608 176.5017 3134.5187 134.9375 3152.9062 C 122.5077 3132.0928 91.5 3132.0938 91.5 3132.0938 L 60.28125 3132.0938 C 42.81985 3132.0938 30.0156 3139.1099 29.6875 3147.9375 L 29.6875 3148.1562 L 29.6875 3148.5625 L 29.6875 3149 L 29.6875 3165 L 45 3165 C 45.3735 3165.025 45.745 3165.0312 46.125 3165.0312 L 90.28125 3165.0312 L 90.28125 3182.5312 L 46.125 3182.5312 C 45.9825 3182.5312 45.86035 3182.5625 45.71875 3182.5625 L 29.6875 3182.5625 L 29.6875 3198.5625 L 29.6875 3199 L 29.6875 3199.4062 L 29.6875 3199.5938 C 29.9023 3208.4545 39.70305 3215.4688 60.28125 3215.4688 L 91.46875 3215.4688 C 91.46875 3215.4688 132.8966 3215.5327 139.1875 3181.8125 C 165.5192 3172.0021 201.89275 3151.0421 191.40625 3111.9062 C 183.52595 3082.4963 158.24425 3063.6699 134.59375 3052.125 C 134.05065 3039.4378 123.66925 3029.4062 110.84375 3029.4062 L 49.21875 3029.4062 L 49.21875 3014.6875 L 96.84375 3014.6875 C 135.20305 3014.6875 166.0625 2983.7968 166.0625 2945.4375 C 166.0625 2925.6984 157.88435 2907.9648 144.71875 2895.375 C 122.84565 2865.7795 72.97135 2845.0938 14.90625 2845.0938 z M -62.1875 2897.7188 L 95.78125 2897.7188 C 122.22955 2897.7188 143.53125 2918.9892 143.53125 2945.4375 C 143.53125 2971.8858 122.22955 2993.1875 95.78125 2993.1875 L -62.1875 2993.1875 C -88.63576 2993.1875 -109.9375 2971.8858 -109.9375 2945.4375 C -109.9375 2918.9892 -88.63576 2897.7188 -62.1875 2897.7188 z M 17.3125 3047.8125 L 28.0625 3058.5938 L 45.65625 3058.5938 L 50.6875 3077.4375 L 35.78125 3092.3438 L 17.15625 3102.8125 L -0.9375 3092.3438 L -15.84375 3077.4375 L -10.8125 3058.5938 L 6.78125 3058.5938 L 17.3125 3047.8125 z "
       id="path4181" />
    <path
       transform="matrix(0.86907279,0,0,0.86907279,-327.80054,2578.9882)"
       d="m 343.02654,419.66879 a 36.84359,36.84359 0 1 1 -73.68718,0 36.84359,36.84359 0 1 1 73.68718,0 z"
       sodipodi:ry="36.84359"
       sodipodi:rx="36.84359"
       sodipodi:cy="419.66879"
       sodipodi:cx="306.18295"
       id="path4183"
       style="fill:#1480cd;fill-opacity:1;stroke:none"
       sodipodi:type="arc" />
    <path
       style="fill:#ffff00;stroke:none"
       d="m 373.63561,2939.7034 18.7095,1.028 14.59753,-12.9528 14.59753,12.5416 18.09271,-1.028 8.01836,25.0831 -20.5599,16.8591 -20.97109,10.6911 -20.7655,-11.308 -18.91511,-17.0646 z"
       id="path4382"
       inkscape:connector-curvature="0" />
    <rect
       style="fill:#1a1a1a;fill-opacity:1;stroke:none"
       id="rect4386"
       width="58.315334"
       height="58.315334"
       x="-1886.3181"
       y="2461.1497"
       rx="0"
       ry="0"
       transform="matrix(0.70710678,-0.70710678,0.70710678,0.70710678,0,0)" />
    <rect
       transform="matrix(0,-1,1,0,0,0)"
       ry="0"
       rx="0"
       y="406.46722"
       x="-3076.1353"
       height="58.315334"
       width="27.732584"
       id="rect4388"
       style="fill:#1a1a1a;fill-opacity:1;stroke:none" />
    <rect
       style="fill:#1a1a1a;fill-opacity:1;stroke:none"
       id="rect4390"
       width="29.10709"
       height="58.315334"
       x="-3077.5098"
       y="430.62222"
       rx="0"
       ry="0"
       transform="matrix(0,-1,1,0,0,0)" />
    <rect
       transform="matrix(0.5,-0.8660254,0.8660254,0.5,0,0)"
       ry="0"
       rx="0"
       y="1879.2512"
       x="-2462.1111"
       height="25.269978"
       width="25.269978"
       id="rect4394"
       style="fill:#1a1a1a;fill-opacity:1;stroke:none" />
    <path
       sodipodi:nodetypes="ccccccccccc"
       inkscape:connector-curvature="0"
       id="path4403"
       d="m 535.50393,2903.4864 -10.54204,10.774 -17.57867,0 -5.05193,18.8674 14.92382,14.8981 18.09417,10.4647 18.63544,-10.4647 14.89805,-14.8981 -5.05193,-18.8674 -17.57867,0 z"
       style="fill:#00ffff;stroke:none" />
  </g>
</svg>
