<?xml version="1.0" encoding="UTF-8" standalone="no"?>
<!-- Created with Inkscape (http://www.inkscape.org/) -->

<svg
   xmlns:dc="http://purl.org/dc/elements/1.1/"
   xmlns:cc="http://creativecommons.org/ns#"
   xmlns:rdf="http://www.w3.org/1999/02/22-rdf-syntax-ns#"
   xmlns:svg="http://www.w3.org/2000/svg"
   xmlns="http://www.w3.org/2000/svg"
   xmlns:sodipodi="http://sodipodi.sourceforge.net/DTD/sodipodi-0.dtd"
   xmlns:inkscape="http://www.inkscape.org/namespaces/inkscape"
   width="1024"
   height="1024"
   id="svg2"
   version="1.1"
   inkscape:version="0.48.2 r9819"
   sodipodi:docname="desurium001.svg">
  <defs
     id="defs4" />
  <sodipodi:namedview
     id="base"
     pagecolor="#ffffff"
     bordercolor="#666666"
     borderopacity="1.0"
     inkscape:pageopacity="0.0"
     inkscape:pageshadow="2"
     inkscape:zoom="0.72753431"
     inkscape:cx="609.69523"
     inkscape:cy="596.10004"
     inkscape:document-units="px"
     inkscape:current-layer="layer1"
     showgrid="false"
     inkscape:window-width="1024"
     inkscape:window-height="708"
     inkscape:window-x="0"
     inkscape:window-y="0"
     inkscape:window-maximized="1"
     width="1024px" />
  <metadata
     id="metadata7">
    <rdf:RDF>
      <cc:Work
         rdf:about="">
        <dc:format>image/svg+xml</dc:format>
        <dc:type
           rdf:resource="http://purl.org/dc/dcmitype/StillImage" />
        <dc:title></dc:title>
      </cc:Work>
    </rdf:RDF>
  </metadata>
  <g
     inkscape:label="Layer 1"
     inkscape:groupmode="layer"
     id="layer1"
     transform="translate(0,-28.362183)">
    <rect
       inkscape:export-ydpi="90"
       inkscape:export-xdpi="90"
       inkscape:export-filename="/home/shi/Desktop/t/desubot.png"
       y="68.336067"
       x="33.582253"
       height="450"
       width="450"
       id="rect4569"
       style="fill:#1a1a1a;fill-opacity:1;stroke:none" />
    <path
       style="fill:#1480cd;fill-opacity:1;stroke:none"
       d="m 332.83555,167.96533 c -4.12017,0 -7.43943,3.3193 -7.43943,7.4393 l 0,0.8378 c -2.44622,0.6861 -4.772,1.6724 -6.94077,2.8919 l -0.59835,-0.5982 c -2.91333,-2.9134 -7.61742,-2.9134 -10.53083,0 l -1.59558,1.5955 c -2.91336,2.9134 -2.91336,7.6175 0,10.5309 l 0.59835,0.5982 c -1.21963,2.169 -2.20591,4.4946 -2.89197,6.9409 l -0.83768,0 c -4.12015,0 -7.43939,3.3192 -7.43939,7.4393 l 0,2.2738 c 0,4.1201 3.31924,7.4393 7.43939,7.4393 l 0.83768,0 c 0.68606,2.4464 1.67234,4.7722 2.89197,6.9408 l -0.59835,0.5984 c -2.91336,2.9132 -2.91336,7.6173 0,10.5309 l 1.59558,1.5955 c 2.91341,2.9133 7.6175,2.9133 10.53083,0 l 0.59835,-0.5983 c 2.16877,1.2197 4.49455,2.2059 6.94077,2.8919 l 0,0.8378 c 0,4.1201 3.31926,7.4393 7.43943,7.4393 l 2.2737,0 c 4.12017,0 7.43936,-3.3192 7.43936,-7.4393 l 0,-0.8378 c 2.44621,-0.686 4.77205,-1.6722 6.94077,-2.8919 l 0.59834,0.5983 c 2.91341,2.9133 7.61749,2.9133 10.53083,0 l 1.59558,-1.5955 c 2.91341,-2.9136 2.91341,-7.6177 0,-10.5309 l -0.59834,-0.5984 c 1.21966,-2.1686 2.20598,-4.4944 2.89202,-6.9408 l 0.83769,0 c 4.12016,0 7.43935,-3.3192 7.43935,-7.4393 l 0,-2.2738 c 0,-4.1201 -3.31919,-7.4393 -7.43935,-7.4393 l -0.83769,0 c -0.68604,-2.4463 -1.67236,-4.7719 -2.89202,-6.9409 l 0.59834,-0.5982 c 2.91341,-2.9134 2.91341,-7.6175 0,-10.5309 l -1.59558,-1.5955 c -2.91334,-2.9134 -7.61742,-2.9134 -10.53083,0 l -0.59834,0.5982 c -2.16872,-1.2195 -4.49456,-2.2058 -6.94077,-2.8919 l 0,-0.8378 c 0,-4.12 -3.31919,-7.4393 -7.43936,-7.4393 l -2.2737,0 z m 1.13681,18.1499 c 11.41114,0 20.66277,9.2515 20.66277,20.6626 0,11.4111 -9.25163,20.6627 -20.66277,20.6627 -11.41114,0 -20.66276,-9.2516 -20.66276,-20.6627 0,-11.4111 9.25162,-20.6626 20.66276,-20.6626 z"
       id="path4571"
       inkscape:connector-curvature="0" />
    <path
       style="fill:#1480cd;fill-opacity:1;fill-rule:evenodd;stroke:none"
       d="m 256.07775,108.16073 c -68.24925,0 -125.2233,28.5566 -138.65625,66.5937 -5.5645,9.9812 -8.71875,21.4669 -8.71875,33.75 0,38.3593 30.85948,69.25 69.21875,69.25 l 51.21875,0 0,14.7187 -59.84375,0 c -13.17556,0 -23.78125,10.6057 -23.78125,23.7813 l 0,1 c -24.75384,11.3311 -52.599574,30.6011 -60.937504,61.7187 -10.45413,39.0152 25.688364,59.9637 52.000004,69.8126 8.64055,29.7966 46.8125,29.75 46.8125,29.75 l 31.1875,0 c 20.5782,0 30.37905,-7.0143 30.59375,-15.875 l 0,-0.1876 0,-0.4062 0,-0.4375 0,-16 -16.03125,0 c -0.1416,0 -0.26365,-0.031 -0.40625,-0.031 l -44.15625,0 0,-17.5 44.15625,0 c 0.3801,0 0.7516,-0.01 1.125,-0.031 l 15.3125,0 0,-16 0,-0.4375 0,-0.4063 0,-0.2187 c -0.328,-8.8276 -13.13235,-15.8437 -30.59375,-15.8437 l -31.21875,0 c 0,0 -33.7312,0.019 -44.9375,23.625 -40.329014,-19.2432 -18.74479,-43.8625 7.09375,-61.4063 l 0,2.7813 c 0,13.1756 10.60569,23.7812 23.78125,23.7812 l 182.71875,0 c 13.1756,0 23.78125,-10.6056 23.78125,-23.7812 l 0,-3.9063 c 24.3894,17.6733 41.8767,41.3313 0.3125,59.7187 -12.4298,-20.8134 -43.4375,-20.8124 -43.4375,-20.8124 l -31.21875,0 c -17.4614,0 -30.26565,7.0161 -30.59375,15.8437 l 0,0.2187 0,0.4063 0,0.4375 0,16 15.3125,0 c 0.3735,0.025 0.745,0.031 1.125,0.031 l 44.15625,0 0,17.5 -44.15625,0 c -0.1425,0 -0.26465,0.031 -0.40625,0.031 l -16.03125,0 0,16 0,0.4375 0,0.4062 0,0.1876 c 0.2148,8.8607 10.01555,15.875 30.59375,15.875 l 31.1875,0 c 0,0 41.42785,0.064 47.71875,-33.6563 26.3317,-9.8104 62.70525,-30.7703 52.21875,-69.9063 -7.8803,-29.4099 -33.162,-48.2363 -56.8125,-59.7812 -0.5431,-12.6872 -10.9245,-22.7188 -23.75,-22.7188 l -61.625,0 0,-14.7187 47.625,0 c 38.3593,0 69.21875,-30.8907 69.21875,-69.25 0,-19.7391 -8.17815,-37.4727 -21.34375,-50.0625 -21.8731,-29.5955 -71.7474,-50.2812 -129.8125,-50.2812 z m -77.09375,52.625 157.96875,0 c 26.4483,0 47.75,21.2704 47.75,47.7187 0,26.4483 -21.3017,47.75 -47.75,47.75 l -157.96875,0 c -26.44826,0 -47.75,-21.3017 -47.75,-47.75 0,-26.4483 21.30174,-47.7187 47.75,-47.7187 z"
       id="path4573"
       inkscape:connector-curvature="0" />
    <path
       inkscape:connector-curvature="0"
       id="path4580"
       d="m 183.01444,167.96533 c -4.12017,0 -7.43943,3.3193 -7.43943,7.4393 l 0,0.8378 c -2.44622,0.6861 -4.772,1.6724 -6.94077,2.8919 l -0.59835,-0.5982 c -2.91333,-2.9134 -7.61742,-2.9134 -10.53083,0 l -1.59558,1.5955 c -2.91336,2.9134 -2.91336,7.6175 0,10.5309 l 0.59835,0.5982 c -1.21963,2.169 -2.20591,4.4946 -2.89197,6.9409 l -0.83768,0 c -4.12015,0 -7.43939,3.3192 -7.43939,7.4393 l 0,2.2738 c 0,4.1201 3.31924,7.4393 7.43939,7.4393 l 0.83768,0 c 0.68606,2.4464 1.67234,4.7722 2.89197,6.9408 l -0.59835,0.5984 c -2.91336,2.9132 -2.91336,7.6173 0,10.5309 l 1.59558,1.5955 c 2.91341,2.9133 7.6175,2.9133 10.53083,0 l 0.59835,-0.5983 c 2.16877,1.2197 4.49455,2.2059 6.94077,2.8919 l 0,0.8378 c 0,4.1201 3.31926,7.4393 7.43943,7.4393 l 2.2737,0 c 4.12017,0 7.43936,-3.3192 7.43936,-7.4393 l 0,-0.8378 c 2.44621,-0.686 4.77205,-1.6722 6.94077,-2.8919 l 0.59834,0.5983 c 2.91341,2.9133 7.61749,2.9133 10.53083,0 l 1.59558,-1.5955 c 2.91341,-2.9136 2.91341,-7.6177 0,-10.5309 l -0.59834,-0.5984 c 1.21966,-2.1686 2.20598,-4.4944 2.89202,-6.9408 l 0.83769,0 c 4.12016,0 7.43935,-3.3192 7.43935,-7.4393 l 0,-2.2738 c 0,-4.1201 -3.31919,-7.4393 -7.43935,-7.4393 l -0.83769,0 c -0.68604,-2.4463 -1.67236,-4.7719 -2.89202,-6.9409 l 0.59834,-0.5982 c 2.91341,-2.9134 2.91341,-7.6175 0,-10.5309 l -1.59558,-1.5955 c -2.91334,-2.9134 -7.61742,-2.9134 -10.53083,0 l -0.59834,0.5982 c -2.16872,-1.2195 -4.49456,-2.2058 -6.94077,-2.8919 l 0,-0.8378 c 0,-4.12 -3.31919,-7.4393 -7.43936,-7.4393 l -2.2737,0 z m 1.13681,18.1499 c 11.41114,0 20.66277,9.2515 20.66277,20.6626 0,11.4111 -9.25163,20.6627 -20.66277,20.6627 -11.41114,0 -20.66276,-9.2516 -20.66276,-20.6627 0,-11.4111 9.25162,-20.6626 20.66276,-20.6626 z"
       style="fill:#1480cd;fill-opacity:1;stroke:none" />
    <rect
       inkscape:export-ydpi="90"
       inkscape:export-xdpi="90"
       inkscape:export-filename="/home/shi/Desktop/t/desubot.png"
       y="540.69025"
       x="35.150463"
       height="450"
       width="450"
       id="rect4582"
       style="fill:#1a1a1a;fill-opacity:1;stroke:none" />
    <path
       style="fill:#1480cd;fill-opacity:1;fill-rule:evenodd;stroke:none"
       d="m 257.63665,580.51494 c -68.2492,0 -125.2233,28.5566 -138.6562,66.5937 -5.5645,9.9812 -8.7188,21.4669 -8.7188,33.75 0,38.3593 30.8595,69.25 69.2188,69.25 l 51.2187,0 0,14.7187 -59.8437,0 c -13.1756,0 -23.7813,10.6057 -23.7813,23.7813 l 0,1 c -24.7538,11.3311 -52.599504,30.6011 -60.937504,61.7187 -10.4541,39.0152 25.688404,59.9637 52.000004,69.8126 8.6406,29.7966 46.8125,29.75 46.8125,29.75 l 31.1875,0 c 20.5782,0 30.3791,-7.0143 30.5938,-15.875 l 0,-0.1876 0,-0.4062 0,-0.4375 0,-16 -16.0313,0 c -0.1416,0 -0.2636,-0.031 -0.4062,-0.031 l -44.1563,0 0,-17.5 44.1563,0 c 0.3801,0 0.7516,-0.01 1.125,-0.031 l 15.3125,0 0,-16 0,-0.4375 0,-0.4063 0,-0.2187 c -0.328,-8.8276 -13.1324,-15.8437 -30.5938,-15.8437 l -31.2187,0 c 0,0 -33.7312,0.019 -44.9375,23.625 -40.329004,-19.2432 -18.7448,-43.8625 7.0937,-61.4063 l 0,2.7813 c 0,13.1756 10.6057,23.7812 23.7813,23.7812 l 182.7187,0 c 13.1756,0 23.7813,-10.6056 23.7813,-23.7812 l 0,-3.9063 c 24.3894,17.6733 41.8767,41.3313 0.3125,59.7187 -12.4298,-20.8134 -43.4375,-20.8124 -43.4375,-20.8124 l -31.2188,0 c -17.4614,0 -30.2656,7.0161 -30.5937,15.8437 l 0,0.2187 0,0.4063 0,0.4375 0,16 15.3125,0 c 0.3735,0.025 0.745,0.031 1.125,0.031 l 44.1562,0 0,17.5 -44.1562,0 c -0.1425,0 -0.2647,0.031 -0.4063,0.031 l -16.0312,0 0,16 0,0.4375 0,0.4062 0,0.1876 c 0.2148,8.8607 10.0155,15.875 30.5937,15.875 l 31.1875,0 c 0,0 41.4279,0.064 47.7188,-33.6563 26.3317,-9.8104 62.7052,-30.7703 52.2187,-69.9063 -7.8803,-29.4099 -33.162,-48.2363 -56.8125,-59.7812 -0.5431,-12.6872 -10.9245,-22.7188 -23.75,-22.7188 l -61.625,0 0,-14.7187 47.625,0 c 38.3593,0 69.2188,-30.8907 69.2188,-69.25 0,-19.7391 -8.1782,-37.4727 -21.3438,-50.0625 -21.8731,-29.5955 -71.7474,-50.2812 -129.8125,-50.2812 z m -77.0937,52.625 157.9687,0 c 26.4483,0 47.75,21.2704 47.75,47.7187 0,26.4483 -21.3017,47.75 -47.75,47.75 l -157.9687,0 c -26.4483,0 -47.75,-21.3017 -47.75,-47.75 0,-26.4483 21.3017,-47.7187 47.75,-47.7187 z"
       id="path4586"
       inkscape:connector-curvature="0" />
    <path
       sodipodi:type="arc"
       style="fill:#1480cd;fill-opacity:1;stroke:none"
       id="path4588"
       sodipodi:cx="306.18295"
       sodipodi:cy="419.66879"
       sodipodi:rx="36.84359"
       sodipodi:ry="36.84359"
       d="m 343.02654,419.66879 a 36.84359,36.84359 0 1 1 -73.68718,0 36.84359,36.84359 0 1 1 73.68718,0 z"
       transform="matrix(0.86907279,0,0,0.86907279,-85.068454,314.40934)" />
    <path
       transform="matrix(0.86907279,0,0,0.86907279,72.999646,314.40934)"
       d="m 343.02654,419.66879 a 36.84359,36.84359 0 1 1 -73.68718,0 36.84359,36.84359 0 1 1 73.68718,0 z"
       sodipodi:ry="36.84359"
       sodipodi:rx="36.84359"
       sodipodi:cy="419.66879"
       sodipodi:cx="306.18295"
       id="path4593"
       style="fill:#1480cd;fill-opacity:1;stroke:none"
       sodipodi:type="arc" />
    <path
       style="fill:#1a1a1a;fill-opacity:1;stroke:none"
       d="m 261.93055,777.77004 c -3.4636,0 -6.2539,2.7903 -6.2539,6.2538 l 0,0.7042 c -2.0564,0.5768 -4.0115,1.4059 -5.8346,2.4311 l -0.503,-0.5029 c -2.4491,-2.4491 -6.4035,-2.4491 -8.8526,0 l -1.3413,1.3412 c -2.4491,2.4492 -2.4491,6.4036 0,8.8527 l 0.503,0.5029 c -1.0253,1.8233 -1.8544,3.7783 -2.4311,5.8348 l -0.7042,0 c -3.4636,0 -6.2539,2.7902 -6.2539,6.2537 l 0,1.9114 c 0,3.4636 2.7903,6.2538 6.2539,6.2538 l 0.7042,0 c 0.5767,2.0565 1.4058,4.0117 2.4311,5.8347 l -0.503,0.503 c -2.4491,2.449 -2.4491,6.4034 0,8.8527 l 1.3413,1.3412 c 2.4491,2.4491 6.4035,2.4491 8.8526,0 l 0.503,-0.5029 c 1.8231,1.0253 3.7782,1.8543 5.8346,2.431 l 0,0.7043 c 0,3.4635 2.7903,6.2537 6.2539,6.2537 l 1.9113,0 c 3.4636,0 6.2539,-2.7902 6.2539,-6.2537 l 0,-0.7043 c 2.0563,-0.5767 4.0115,-1.4057 5.8346,-2.431 l 0.503,0.5029 c 2.4491,2.4491 6.4035,2.4491 8.8526,0 l 1.3413,-1.3412 c 2.4491,-2.4493 2.4491,-6.4037 0,-8.8527 l -0.503,-0.503 c 1.0253,-1.823 1.8545,-3.7782 2.4312,-5.8347 l 0.7042,0 c 3.4635,0 6.2538,-2.7902 6.2538,-6.2538 l 0,-1.9114 c 0,-3.4635 -2.7903,-6.2537 -6.2538,-6.2537 l -0.7042,0 c -0.5767,-2.0565 -1.4059,-4.0115 -2.4312,-5.8348 l 0.503,-0.5029 c 2.4491,-2.4491 2.4491,-6.4035 0,-8.8527 l -1.3413,-1.3412 c -2.4491,-2.4491 -6.4035,-2.4491 -8.8526,0 l -0.503,0.5029 c -1.8231,-1.0252 -3.7783,-1.8543 -5.8346,-2.4311 l 0,-0.7042 c 0,-3.4635 -2.7903,-6.2538 -6.2539,-6.2538 l -1.9113,0 z m 0.9556,15.2575 c 9.5927,0 17.3699,7.7771 17.3699,17.3697 0,9.5926 -7.7772,17.3699 -17.3699,17.3699 -9.5926,0 -17.3698,-7.7773 -17.3698,-17.3699 0,-9.5926 7.7772,-17.3697 17.3698,-17.3697 z"
       id="path4595"
       inkscape:connector-curvature="0" />
    <path
       inkscape:connector-curvature="0"
       id="path4628"
       d="m 210.19372,334.66893 c -6.22069,1.6668 -10.1125,5.3886 -9.38667,8.5649 l 0.021,0.079 c 0.0118,0.05 0.0142,0.097 0.0278,0.1476 0.0133,0.05 0.0395,0.1035 0.0528,0.153 l 1.52729,5.7 5.45513,-1.4617 c 0.13625,-0.023 0.26867,-0.059 0.40403,-0.095 l 15.73082,-4.2151 1.67053,6.2345 -15.73082,4.215 c -0.0508,0.013 -0.10222,0.04 -0.1526,0.054 l -5.70004,1.5274 1.52734,5.7001 c 0.0118,0.05 0.0172,0.1082 0.0307,0.1587 0.0129,0.049 0.0395,0.1036 0.0528,0.153 l 0.0151,0.056 c 0.92228,3.1363 5.08348,4.6996 12.41451,2.7351 l 11.11065,-2.977 c 0,0 12.17553,-3.2416 13.6827,-13.2837 l 40.52582,-10.8589 c 6.32636,7.9434 18.50249,4.6597 18.50249,4.6597 l 11.09952,-2.9741 c 7.33103,-1.9643 10.15307,-5.3988 9.38373,-8.5758 l -0.0154,-0.057 c -0.0129,-0.049 -0.0175,-0.1093 -0.0307,-0.1588 -0.0138,-0.051 -0.038,-0.1026 -0.0528,-0.153 l -1.52731,-5.7 -5.70006,1.5273 c -0.0504,0.014 -0.10849,0.016 -0.1592,0.029 l -15.73082,4.2151 -1.6705,-6.2345 15.73077,-4.215 c 0.13542,-0.036 0.26778,-0.072 0.39754,-0.1196 l 5.45513,-1.4617 -1.52734,-5.7 c -0.0129,-0.049 -0.0175,-0.1094 -0.0307,-0.1588 -0.0136,-0.05 -0.0351,-0.092 -0.0498,-0.1417 l -0.021,-0.079 c -0.95953,-3.1135 -6.19086,-4.3909 -12.41152,-2.724 l -11.12175,2.98 c 0,0 -12.52445,3.369 -13.83858,13.3254 l -40.18069,10.7665 c -6.11711,-7.9724 -18.65838,-4.618 -18.65838,-4.618 l -11.12179,2.9802 z"
       style="fill:#1a1a1a;fill-opacity:1;fill-rule:evenodd;stroke:none"
       sodipodi:nodetypes="ccccsccsccsscccccccccccccccccscccccccccscccccc" />
    <rect
       style="fill:#1a1a1a;fill-opacity:1;stroke:none"
       id="rect4630"
       width="450"
       height="450"
       x="529.26257"
       y="542.63409"
       inkscape:export-filename="/home/shi/Desktop/t/desubot.png"
       inkscape:export-xdpi="90"
       inkscape:export-ydpi="90" />
    <path
       inkscape:connector-curvature="0"
       id="path4632"
       d="m 828.51589,642.26338 c -4.12017,0 -7.43943,3.3193 -7.43943,7.4393 l 0,0.8378 c -2.44622,0.6861 -4.772,1.6724 -6.94077,2.8919 l -0.59835,-0.5982 c -2.91333,-2.9134 -7.61742,-2.9134 -10.53083,0 l -1.59558,1.5955 c -2.91336,2.9134 -2.91336,7.6175 0,10.5309 l 0.59835,0.5982 c -1.21963,2.169 -2.20591,4.4946 -2.89197,6.9409 l -0.83768,0 c -4.12015,0 -7.43939,3.3192 -7.43939,7.4393 l 0,2.2738 c 0,4.1201 3.31924,7.4393 7.43939,7.4393 l 0.83768,0 c 0.68606,2.4464 1.67234,4.7722 2.89197,6.9408 l -0.59835,0.5984 c -2.91336,2.9132 -2.91336,7.6173 0,10.5309 l 1.59558,1.5955 c 2.91341,2.9133 7.6175,2.9133 10.53083,0 l 0.59835,-0.5983 c 2.16877,1.2197 4.49455,2.2059 6.94077,2.8919 l 0,0.8378 c 0,4.1201 3.31926,7.4393 7.43943,7.4393 l 2.2737,0 c 4.12017,0 7.43936,-3.3192 7.43936,-7.4393 l 0,-0.8378 c 2.44621,-0.686 4.77205,-1.6722 6.94077,-2.8919 l 0.59834,0.5983 c 2.91341,2.9133 7.61749,2.9133 10.53083,0 l 1.59558,-1.5955 c 2.91341,-2.9136 2.91341,-7.6177 0,-10.5309 l -0.59834,-0.5984 c 1.21966,-2.1686 2.20598,-4.4944 2.89202,-6.9408 l 0.83769,0 c 4.12016,0 7.43935,-3.3192 7.43935,-7.4393 l 0,-2.2738 c 0,-4.1201 -3.31919,-7.4393 -7.43935,-7.4393 l -0.83769,0 c -0.68604,-2.4463 -1.67236,-4.7719 -2.89202,-6.9409 l 0.59834,-0.5982 c 2.91341,-2.9134 2.91341,-7.6175 0,-10.5309 l -1.59558,-1.5955 c -2.91334,-2.9134 -7.61742,-2.9134 -10.53083,0 l -0.59834,0.5982 c -2.16872,-1.2195 -4.49456,-2.2058 -6.94077,-2.8919 l 0,-0.8378 c 0,-4.12 -3.31919,-7.4393 -7.43936,-7.4393 l -2.2737,0 z m 1.13681,18.1499 c 11.41114,0 20.66277,9.2515 20.66277,20.6626 0,11.4111 -9.25163,20.6627 -20.66277,20.6627 -11.41114,0 -20.66276,-9.2516 -20.66276,-20.6627 0,-11.4111 9.25162,-20.6626 20.66276,-20.6626 z"
       style="fill:#1480cd;fill-opacity:1;stroke:none" />
    <path
       inkscape:connector-curvature="0"
       id="path4634"
       d="m 751.75809,582.45878 c -68.24925,0 -125.2233,28.5566 -138.65625,66.5937 -5.5645,9.9812 -8.71875,21.4669 -8.71875,33.75 0,38.3593 30.85948,69.25 69.21875,69.25 l 51.21875,0 0,14.7187 -59.84375,0 c -13.17556,0 -23.78125,10.6057 -23.78125,23.7813 l 0,1 c -24.75384,11.3311 -52.59957,30.6011 -60.9375,61.7187 -10.45413,39.0152 25.68836,59.9637 52,69.8126 8.64055,29.7966 46.8125,29.75 46.8125,29.75 l 31.1875,0 c 20.5782,0 30.37905,-7.0143 30.59375,-15.875 l 0,-0.1876 0,-0.4062 0,-0.4375 0,-16 -16.03125,0 c -0.1416,0 -0.26365,-0.031 -0.40625,-0.031 l -44.15625,0 0,-17.5 44.15625,0 c 0.3801,0 0.7516,-0.01 1.125,-0.031 l 15.3125,0 0,-16 0,-0.4375 0,-0.4063 0,-0.2187 c -0.328,-8.8276 -13.13235,-15.8437 -30.59375,-15.8437 l -31.21875,0 c 0,0 -33.7312,0.019 -44.9375,23.625 -40.32901,-19.2432 -18.74479,-43.8625 7.09375,-61.4063 l 0,2.7813 c 0,13.1756 10.60569,23.7812 23.78125,23.7812 l 182.71875,0 c 13.1756,0 23.78125,-10.6056 23.78125,-23.7812 l 0,-3.9063 c 24.3894,17.6733 41.8767,41.3313 0.3125,59.7187 -12.4298,-20.8134 -43.4375,-20.8124 -43.4375,-20.8124 l -31.21875,0 c -17.4614,0 -30.26565,7.0161 -30.59375,15.8437 l 0,0.2187 0,0.4063 0,0.4375 0,16 15.3125,0 c 0.3735,0.025 0.745,0.031 1.125,0.031 l 44.15625,0 0,17.5 -44.15625,0 c -0.1425,0 -0.26465,0.031 -0.40625,0.031 l -16.03125,0 0,16 0,0.4375 0,0.4062 0,0.1876 c 0.2148,8.8607 10.01555,15.875 30.59375,15.875 l 31.1875,0 c 0,0 41.42785,0.064 47.71875,-33.6563 26.3317,-9.8104 62.70525,-30.7703 52.21875,-69.9063 -7.8803,-29.4099 -33.162,-48.2363 -56.8125,-59.7812 -0.5431,-12.6872 -10.9245,-22.7188 -23.75,-22.7188 l -61.625,0 0,-14.7187 47.625,0 c 38.3593,0 69.21875,-30.8907 69.21875,-69.25 0,-19.7391 -8.17815,-37.4727 -21.34375,-50.0625 -21.8731,-29.5955 -71.7474,-50.2812 -129.8125,-50.2812 z m -77.09375,52.625 157.96875,0 c 26.4483,0 47.75,21.2704 47.75,47.7187 0,26.4483 -21.3017,47.75 -47.75,47.75 l -157.96875,0 c -26.44826,0 -47.75,-21.3017 -47.75,-47.75 0,-26.4483 21.30174,-47.7187 47.75,-47.7187 z"
       style="fill:#1480cd;fill-opacity:1;fill-rule:evenodd;stroke:none" />
    <path
       style="fill:#1480cd;fill-opacity:1;stroke:none"
       d="m 678.69478,642.26338 c -4.12017,0 -7.43943,3.3193 -7.43943,7.4393 l 0,0.8378 c -2.44622,0.6861 -4.772,1.6724 -6.94077,2.8919 l -0.59835,-0.5982 c -2.91333,-2.9134 -7.61742,-2.9134 -10.53083,0 l -1.59558,1.5955 c -2.91336,2.9134 -2.91336,7.6175 0,10.5309 l 0.59835,0.5982 c -1.21963,2.169 -2.20591,4.4946 -2.89197,6.9409 l -0.83768,0 c -4.12015,0 -7.43939,3.3192 -7.43939,7.4393 l 0,2.2738 c 0,4.1201 3.31924,7.4393 7.43939,7.4393 l 0.83768,0 c 0.68606,2.4464 1.67234,4.7722 2.89197,6.9408 l -0.59835,0.5984 c -2.91336,2.9132 -2.91336,7.6173 0,10.5309 l 1.59558,1.5955 c 2.91341,2.9133 7.6175,2.9133 10.53083,0 l 0.59835,-0.5983 c 2.16877,1.2197 4.49455,2.2059 6.94077,2.8919 l 0,0.8378 c 0,4.1201 3.31926,7.4393 7.43943,7.4393 l 2.2737,0 c 4.12017,0 7.43936,-3.3192 7.43936,-7.4393 l 0,-0.8378 c 2.44621,-0.686 4.77205,-1.6722 6.94077,-2.8919 l 0.59834,0.5983 c 2.91341,2.9133 7.61749,2.9133 10.53083,0 l 1.59558,-1.5955 c 2.91341,-2.9136 2.91341,-7.6177 0,-10.5309 l -0.59834,-0.5984 c 1.21966,-2.1686 2.20598,-4.4944 2.89202,-6.9408 l 0.83769,0 c 4.12016,0 7.43935,-3.3192 7.43935,-7.4393 l 0,-2.2738 c 0,-4.1201 -3.31919,-7.4393 -7.43935,-7.4393 l -0.83769,0 c -0.68604,-2.4463 -1.67236,-4.7719 -2.89202,-6.9409 l 0.59834,-0.5982 c 2.91341,-2.9134 2.91341,-7.6175 0,-10.5309 l -1.59558,-1.5955 c -2.91334,-2.9134 -7.61742,-2.9134 -10.53083,0 l -0.59834,0.5982 c -2.16872,-1.2195 -4.49456,-2.2058 -6.94077,-2.8919 l 0,-0.8378 c 0,-4.12 -3.31919,-7.4393 -7.43936,-7.4393 l -2.2737,0 z m 1.13681,18.1499 c 11.41114,0 20.66277,9.2515 20.66277,20.6626 0,11.4111 -9.25163,20.6627 -20.66277,20.6627 -11.41114,0 -20.66276,-9.2516 -20.66276,-20.6627 0,-11.4111 9.25162,-20.6626 20.66276,-20.6626 z"
       id="path4636"
       inkscape:connector-curvature="0" />
    <path
       inkscape:connector-curvature="0"
       id="path3381"
       d="m 754.2586,777.58904 c -15.05759,0 -27.26054,12.20292 -27.26054,27.2605 0,10.63016 6.07686,19.83426 14.9524,24.33097 l 0,10.67209 c 0,2.22577 1.8072,4.03297 4.03296,4.03297 l 16.55036,0 c 2.22576,0 4.01394,-1.8072 4.01394,-4.03297 l 0,-10.67209 c 8.87886,-4.49555 14.97142,-13.69837 14.97142,-24.33097 0,-15.05758 -12.20295,-27.2605 -27.26054,-27.2605 z m -5.51679,12.02279 14.36267,18.3956 -9.91119,5.55483 3.8998,12.82178 -12.36521,-16.41723 7.53326,-4.03296 -3.51933,-16.32202 z"
       style="fill:#1a1a1a;fill-opacity:1;stroke:none" />
    <rect
       style="fill:#1a1a1a;fill-opacity:1;stroke:none"
       id="rect4640"
       width="450"
       height="450"
       x="529.77881"
       y="68.336067"
       inkscape:export-filename="/home/shi/Desktop/t/desubot.png"
       inkscape:export-xdpi="90"
       inkscape:export-ydpi="90" />
    <path
       inkscape:connector-curvature="0"
       id="path4642"
       d="m 829.03208,167.96533 c -4.12017,0 -7.43943,3.3193 -7.43943,7.4393 l 0,0.8378 c -2.44622,0.6861 -4.772,1.6724 -6.94077,2.8919 l -0.59835,-0.5982 c -2.91333,-2.9134 -7.61742,-2.9134 -10.53083,0 l -1.59558,1.5955 c -2.91336,2.9134 -2.91336,7.6175 0,10.5309 l 0.59835,0.5982 c -1.21963,2.169 -2.20591,4.4946 -2.89197,6.9409 l -0.83768,0 c -4.12015,0 -7.43939,3.3192 -7.43939,7.4393 l 0,2.2738 c 0,4.1201 3.31924,7.4393 7.43939,7.4393 l 0.83768,0 c 0.68606,2.4464 1.67234,4.7722 2.89197,6.9408 l -0.59835,0.5984 c -2.91336,2.9132 -2.91336,7.6173 0,10.5309 l 1.59558,1.5955 c 2.91341,2.9133 7.6175,2.9133 10.53083,0 l 0.59835,-0.5983 c 2.16877,1.2197 4.49455,2.2059 6.94077,2.8919 l 0,0.8378 c 0,4.1201 3.31926,7.4393 7.43943,7.4393 l 2.2737,0 c 4.12017,0 7.43936,-3.3192 7.43936,-7.4393 l 0,-0.8378 c 2.44621,-0.686 4.77205,-1.6722 6.94077,-2.8919 l 0.59834,0.5983 c 2.91341,2.9133 7.61749,2.9133 10.53083,0 l 1.59558,-1.5955 c 2.91341,-2.9136 2.91341,-7.6177 0,-10.5309 l -0.59834,-0.5984 c 1.21966,-2.1686 2.20598,-4.4944 2.89202,-6.9408 l 0.83769,0 c 4.12016,0 7.43935,-3.3192 7.43935,-7.4393 l 0,-2.2738 c 0,-4.1201 -3.31919,-7.4393 -7.43935,-7.4393 l -0.83769,0 c -0.68604,-2.4463 -1.67236,-4.7719 -2.89202,-6.9409 l 0.59834,-0.5982 c 2.91341,-2.9134 2.91341,-7.6175 0,-10.5309 l -1.59558,-1.5955 c -2.91334,-2.9134 -7.61742,-2.9134 -10.53083,0 l -0.59834,0.5982 c -2.16872,-1.2195 -4.49456,-2.2058 -6.94077,-2.8919 l 0,-0.8378 c 0,-4.12 -3.31919,-7.4393 -7.43936,-7.4393 l -2.2737,0 z m 1.13681,18.1499 c 11.41114,0 20.66277,9.2515 20.66277,20.6626 0,11.4111 -9.25163,20.6627 -20.66277,20.6627 -11.41114,0 -20.66276,-9.2516 -20.66276,-20.6627 0,-11.4111 9.25162,-20.6626 20.66276,-20.6626 z"
       style="fill:#1480cd;fill-opacity:1;stroke:none" />
    <path
       inkscape:connector-curvature="0"
       id="path4644"
       d="m 752.27428,108.16073 c -68.24925,0 -125.2233,28.5566 -138.65625,66.5937 -5.5645,9.9812 -8.71875,21.4669 -8.71875,33.75 0,38.3593 30.85948,69.25 69.21875,69.25 l 51.21875,0 0,14.7187 -59.84375,0 c -13.17556,0 -23.78125,10.6057 -23.78125,23.7813 l 0,1 c -24.75384,11.3311 -52.59958,30.6011 -60.93751,61.7187 -10.45413,39.0152 25.68837,59.9637 52.00001,69.8126 8.64055,29.7966 46.8125,29.75 46.8125,29.75 l 31.1875,0 c 20.5782,0 30.37905,-7.0143 30.59375,-15.875 l 0,-0.1876 0,-0.4062 0,-0.4375 0,-16 -16.03125,0 c -0.1416,0 -0.26365,-0.031 -0.40625,-0.031 l -44.15625,0 0,-17.5 44.15625,0 c 0.3801,0 0.7516,-0.01 1.125,-0.031 l 15.3125,0 0,-16 0,-0.4375 0,-0.4063 0,-0.2187 c -0.328,-8.8276 -13.13235,-15.8437 -30.59375,-15.8437 l -31.21875,0 c 0,0 -33.7312,0.019 -44.9375,23.625 -40.32902,-19.2432 -18.74479,-43.8625 7.09375,-61.4063 l 0,2.7813 c 0,13.1756 10.60569,23.7812 23.78125,23.7812 l 182.71875,0 c 13.1756,0 23.78125,-10.6056 23.78125,-23.7812 l 0,-3.9063 c 24.3894,17.6733 41.8767,41.3313 0.3125,59.7187 -12.4298,-20.8134 -43.4375,-20.8124 -43.4375,-20.8124 l -31.21875,0 c -17.4614,0 -30.26565,7.0161 -30.59375,15.8437 l 0,0.2187 0,0.4063 0,0.4375 0,16 15.3125,0 c 0.3735,0.025 0.745,0.031 1.125,0.031 l 44.15625,0 0,17.5 -44.15625,0 c -0.1425,0 -0.26465,0.031 -0.40625,0.031 l -16.03125,0 0,16 0,0.4375 0,0.4062 0,0.1876 c 0.2148,8.8607 10.01555,15.875 30.59375,15.875 l 31.1875,0 c 0,0 41.42785,0.064 47.71875,-33.6563 26.3317,-9.8104 62.70525,-30.7703 52.21875,-69.9063 -7.8803,-29.4099 -33.162,-48.2363 -56.8125,-59.7812 -0.5431,-12.6872 -10.9245,-22.7188 -23.75,-22.7188 l -61.625,0 0,-14.7187 47.625,0 c 38.3593,0 69.21875,-30.8907 69.21875,-69.25 0,-19.7391 -8.17815,-37.4727 -21.34375,-50.0625 -21.8731,-29.5955 -71.7474,-50.2812 -129.8125,-50.2812 z m -77.09375,52.625 157.96875,0 c 26.4483,0 47.75,21.2704 47.75,47.7187 0,26.4483 -21.3017,47.75 -47.75,47.75 l -157.96875,0 c -26.44826,0 -47.75,-21.3017 -47.75,-47.75 0,-26.4483 21.30174,-47.7187 47.75,-47.7187 z"
       style="fill:#1480cd;fill-opacity:1;fill-rule:evenodd;stroke:none" />
    <path
       style="fill:#1480cd;fill-opacity:1;stroke:none"
       d="m 679.21097,167.96533 c -4.12017,0 -7.43943,3.3193 -7.43943,7.4393 l 0,0.8378 c -2.44622,0.6861 -4.772,1.6724 -6.94077,2.8919 l -0.59835,-0.5982 c -2.91333,-2.9134 -7.61742,-2.9134 -10.53083,0 l -1.59558,1.5955 c -2.91336,2.9134 -2.91336,7.6175 0,10.5309 l 0.59835,0.5982 c -1.21963,2.169 -2.20591,4.4946 -2.89197,6.9409 l -0.83768,0 c -4.12015,0 -7.43939,3.3192 -7.43939,7.4393 l 0,2.2738 c 0,4.1201 3.31924,7.4393 7.43939,7.4393 l 0.83768,0 c 0.68606,2.4464 1.67234,4.7722 2.89197,6.9408 l -0.59835,0.5984 c -2.91336,2.9132 -2.91336,7.6173 0,10.5309 l 1.59558,1.5955 c 2.91341,2.9133 7.6175,2.9133 10.53083,0 l 0.59835,-0.5983 c 2.16877,1.2197 4.49455,2.2059 6.94077,2.8919 l 0,0.8378 c 0,4.1201 3.31926,7.4393 7.43943,7.4393 l 2.2737,0 c 4.12017,0 7.43936,-3.3192 7.43936,-7.4393 l 0,-0.8378 c 2.44621,-0.686 4.77205,-1.6722 6.94077,-2.8919 l 0.59834,0.5983 c 2.91341,2.9133 7.61749,2.9133 10.53083,0 l 1.59558,-1.5955 c 2.91341,-2.9136 2.91341,-7.6177 0,-10.5309 l -0.59834,-0.5984 c 1.21966,-2.1686 2.20598,-4.4944 2.89202,-6.9408 l 0.83769,0 c 4.12016,0 7.43935,-3.3192 7.43935,-7.4393 l 0,-2.2738 c 0,-4.1201 -3.31919,-7.4393 -7.43935,-7.4393 l -0.83769,0 c -0.68604,-2.4463 -1.67236,-4.7719 -2.89202,-6.9409 l 0.59834,-0.5982 c 2.91341,-2.9134 2.91341,-7.6175 0,-10.5309 l -1.59558,-1.5955 c -2.91334,-2.9134 -7.61742,-2.9134 -10.53083,0 l -0.59834,0.5982 c -2.16872,-1.2195 -4.49456,-2.2058 -6.94077,-2.8919 l 0,-0.8378 c 0,-4.12 -3.31919,-7.4393 -7.43936,-7.4393 l -2.2737,0 z m 1.13681,18.1499 c 11.41114,0 20.66277,9.2515 20.66277,20.6626 0,11.4111 -9.25163,20.6627 -20.66277,20.6627 -11.41114,0 -20.66276,-9.2516 -20.66276,-20.6627 0,-11.4111 9.25162,-20.6626 20.66276,-20.6626 z"
       id="path4646"
       inkscape:connector-curvature="0" />
  </g>
</svg>
